<svg width="64" height="64" viewBox="0 0 64 64" fill="none" xmlns="http://www.w3.org/2000/svg">
<g clip-path="url(#clip0_246_5092)">
<path d="M23.3379 32.0051C15.9719 32.0051 10.0019 26.0352 10.0019 18.6692C10.0019 11.3032 15.9719 5.33325 23.3379 5.33325C30.7039 5.33325 36.6738 11.3032 36.6738 18.6692C36.6738 26.0352 30.7039 32.0051 23.3379 32.0051ZM18.5765 37.0061H28.0992C29.3286 37.0061 30.5372 37.1311 31.6937 37.3499C31.4749 39.2773 32.4646 41.0589 33.9649 42.0175C32.2354 43.1218 31.1831 45.3098 31.8812 47.5706C32.2979 48.9146 32.8605 50.2274 33.5899 51.4881C34.3192 52.7487 35.1735 53.8948 36.132 54.9262C37.7678 56.687 40.2578 56.8433 42.0915 55.8326V55.9264C42.0915 56.8849 42.3728 57.8539 42.9146 58.6665H3.09435C1.38569 58.6769 0 57.2913 0 55.5826C0 45.3202 8.31412 37.0061 18.5765 37.0061ZM45.4255 28.0668C45.4255 27.3375 45.8943 26.6811 46.6028 26.5249C47.6968 26.2748 48.8428 26.1394 50.0097 26.1394C51.1766 26.1394 52.3227 26.2748 53.4166 26.5249C54.1251 26.6811 54.5939 27.3375 54.5939 28.0668V31.255C55.417 31.6092 56.1984 32.0572 56.9173 32.5885L59.5116 31.0987C60.1471 30.734 60.9389 30.8174 61.439 31.3487C62.2308 32.1926 62.9289 33.1407 63.5332 34.1826C64.1375 35.2245 64.6063 36.308 64.9397 37.4124C65.1585 38.1105 64.8251 38.8398 64.1896 39.2044L61.5849 40.7047C61.6266 41.1215 61.6578 41.5486 61.6578 41.9862C61.6578 42.4238 61.637 42.8405 61.5849 43.2677L64.1896 44.768C64.8251 45.1327 65.1481 45.862 64.9397 46.56C64.5959 47.6644 64.127 48.7479 63.5332 49.7898C62.9393 50.8317 62.2308 51.7798 61.439 52.6237C60.9389 53.155 60.1367 53.2384 59.5116 52.8737L56.9173 51.3839C56.1984 51.9152 55.4274 52.3632 54.5939 52.7175V55.9056C54.5939 56.6349 54.1251 57.2913 53.4166 57.4475C52.3227 57.6976 51.1766 57.833 50.0097 57.833C48.8428 57.833 47.6968 57.6976 46.6028 57.4475C45.8943 57.2913 45.4255 56.6349 45.4255 55.9056V52.7175C44.592 52.3632 43.8002 51.9152 43.0813 51.3734L40.5079 52.8633C39.8723 53.228 39.0805 53.1446 38.5804 52.6133C37.7886 51.7694 37.0905 50.8213 36.4863 49.7794C35.882 48.7375 35.4131 47.654 35.0797 46.5496C34.8609 45.8515 35.1943 45.1222 35.8299 44.7576L38.4137 43.2677C38.372 42.8405 38.3408 42.4134 38.3408 41.9758C38.3408 41.5382 38.3616 41.111 38.4137 40.6839L35.8195 39.194C35.1839 38.8293 34.8609 38.1 35.0693 37.402C35.4131 36.2976 35.8716 35.2141 36.4758 34.1722C37.0801 33.1303 37.7782 32.1822 38.57 31.3383C39.0701 30.807 39.8619 30.7236 40.4975 31.0883L43.0813 32.5781C43.8002 32.0468 44.592 31.5988 45.4255 31.2341V28.0668ZM55.0211 41.9758C55.0211 39.2148 52.7811 36.9748 50.0097 36.9748C47.2383 36.9748 44.9983 39.2148 44.9983 41.9758C44.9983 44.7367 47.2383 46.9768 50.0097 46.9768C52.7811 46.9768 55.0211 44.7367 55.0211 41.9758Z" fill="#36998E"/>
</g>
<defs>
<clipPath id="clip0_246_5092">
<rect width="64" height="64" fill="white"/>
</clipPath>
</defs>
</svg>
