<svg width="64" height="64" viewBox="0 0 64 64" fill="none" xmlns="http://www.w3.org/2000/svg">
<path d="M17.5223 5.33325C11.2128 5.33325 6.09375 9.81242 6.09375 15.3333V48.6666C6.09375 54.1874 11.2128 58.6666 17.5223 58.6666H51.808H55.6176C57.7247 58.6666 59.4271 57.177 59.4271 55.3333C59.4271 53.4895 57.7247 51.9999 55.6176 51.9999V45.3333C57.7247 45.3333 59.4271 43.8437 59.4271 41.9999V8.66659C59.4271 6.82284 57.7247 5.33325 55.6176 5.33325H51.808H17.5223ZM17.5223 45.3333H47.9985V51.9999H17.5223C15.4152 51.9999 13.7128 50.5103 13.7128 48.6666C13.7128 46.8228 15.4152 45.3333 17.5223 45.3333ZM21.3318 20.3333C21.3318 19.4166 22.189 18.6666 23.2366 18.6666H46.0938C47.1414 18.6666 47.9985 19.4166 47.9985 20.3333C47.9985 21.2499 47.1414 21.9999 46.0938 21.9999H23.2366C22.189 21.9999 21.3318 21.2499 21.3318 20.3333ZM23.2366 25.3333H46.0938C47.1414 25.3333 47.9985 26.0833 47.9985 26.9999C47.9985 27.9166 47.1414 28.6666 46.0938 28.6666H23.2366C22.189 28.6666 21.3318 27.9166 21.3318 26.9999C21.3318 26.0833 22.189 25.3333 23.2366 25.3333Z" fill="#36998E"/>
</svg>
