<svg width="64" height="64" viewBox="0 0 64 64" fill="none" xmlns="http://www.w3.org/2000/svg">
<path d="M33.332 5.33325C28.9779 5.33325 25.2695 8.1145 23.9049 11.9999H19.9987C16.3216 11.9999 13.332 14.9895 13.332 18.6666V51.9999C13.332 55.677 16.3216 58.6666 19.9987 58.6666H46.6654C50.3424 58.6666 53.332 55.677 53.332 51.9999V18.6666C53.332 14.9895 50.3424 11.9999 46.6654 11.9999H42.7591C41.3945 8.1145 37.6862 5.33325 33.332 5.33325ZM33.332 11.9999C34.2161 11.9999 35.0639 12.3511 35.6891 12.9762C36.3142 13.6014 36.6654 14.4492 36.6654 15.3333C36.6654 16.2173 36.3142 17.0652 35.6891 17.6903C35.0639 18.3154 34.2161 18.6666 33.332 18.6666C32.448 18.6666 31.6001 18.3154 30.975 17.6903C30.3499 17.0652 29.9987 16.2173 29.9987 15.3333C29.9987 14.4492 30.3499 13.6014 30.975 12.9762C31.6001 12.3511 32.448 11.9999 33.332 11.9999ZM20.832 33.6666C20.832 33.0035 21.0954 32.3677 21.5643 31.8988C22.0331 31.43 22.669 31.1666 23.332 31.1666C23.9951 31.1666 24.631 31.43 25.0998 31.8988C25.5686 32.3677 25.832 33.0035 25.832 33.6666C25.832 34.3296 25.5686 34.9655 25.0998 35.4344C24.631 35.9032 23.9951 36.1666 23.332 36.1666C22.669 36.1666 22.0331 35.9032 21.5643 35.4344C21.0954 34.9655 20.832 34.3296 20.832 33.6666ZM31.6654 31.9999H44.9987C45.9154 31.9999 46.6654 32.7499 46.6654 33.6666C46.6654 34.5833 45.9154 35.3333 44.9987 35.3333H31.6654C30.7487 35.3333 29.9987 34.5833 29.9987 33.6666C29.9987 32.7499 30.7487 31.9999 31.6654 31.9999ZM20.832 43.6666C20.832 43.0035 21.0954 42.3677 21.5643 41.8988C22.0331 41.43 22.669 41.1666 23.332 41.1666C23.9951 41.1666 24.631 41.43 25.0998 41.8988C25.5686 42.3677 25.832 43.0035 25.832 43.6666C25.832 44.3296 25.5686 44.9655 25.0998 45.4344C24.631 45.9032 23.9951 46.1666 23.332 46.1666C22.669 46.1666 22.0331 45.9032 21.5643 45.4344C21.0954 44.9655 20.832 44.3296 20.832 43.6666ZM29.9987 43.6666C29.9987 42.7499 30.7487 41.9999 31.6654 41.9999H44.9987C45.9154 41.9999 46.6654 42.7499 46.6654 43.6666C46.6654 44.5833 45.9154 45.3333 44.9987 45.3333H31.6654C30.7487 45.3333 29.9987 44.5833 29.9987 43.6666Z" fill="#36998E"/>
</svg>
