<svg width="80" height="80" viewBox="0 0 80 80" fill="none" xmlns="http://www.w3.org/2000/svg">
<rect width="80" height="80" rx="40" fill="#F5FAF9"/>
<path d="M35.8315 24.3747C35.8315 24.0984 35.9412 23.8334 36.1366 23.6381C36.3319 23.4428 36.5969 23.333 36.8731 23.333H43.123C43.3993 23.333 43.6642 23.4428 43.8596 23.6381C44.0549 23.8334 44.1647 24.0984 44.1647 24.3747C44.1647 24.6509 44.0549 24.9159 43.8596 25.1112C43.6642 25.3066 43.3993 25.4163 43.123 25.4163H42.0814V27.6454C44.9184 28.055 47.5719 29.2914 49.7103 31.2002C51.8487 33.1091 53.3772 35.6057 54.1049 38.3783C54.8326 41.1508 54.7272 44.0763 53.8019 46.7893C52.8766 49.5023 51.1723 51.8825 48.9021 53.6325L50.1541 54.8866C50.3497 55.0819 50.4597 55.347 50.4599 55.6234C50.4601 55.8998 50.3505 56.165 50.1552 56.3606C49.9599 56.5562 49.6948 56.6661 49.4184 56.6663C49.142 56.6665 48.8768 56.5569 48.6813 56.3616L47.1271 54.8075C44.95 56.0295 42.4947 56.6695 39.9981 56.6658C37.5015 56.6695 35.0461 56.0295 32.869 54.8075L31.3149 56.3616C31.218 56.4583 31.1031 56.535 30.9766 56.5873C30.8501 56.6396 30.7146 56.6664 30.5777 56.6663C30.4408 56.6662 30.3053 56.6392 30.1789 56.5867C30.0525 56.5343 29.9377 56.4574 29.841 56.3606C29.7442 56.2637 29.6676 56.1488 29.6153 56.0223C29.563 55.8958 29.5361 55.7602 29.5362 55.6234C29.5364 55.347 29.6464 55.0819 29.842 54.8866L31.0961 53.6325C28.8259 51.8826 27.1217 49.5026 26.1962 46.7898C25.2708 44.0769 25.1652 41.1516 25.8927 38.3791C26.6201 35.6066 28.1484 33.1099 30.2865 31.2009C32.4247 29.2919 35.0779 28.0553 37.9148 27.6454V25.4163H36.8731C36.5969 25.4163 36.3319 25.3066 36.1366 25.1112C35.9412 24.9159 35.8315 24.6509 35.8315 24.3747ZM41.0397 34.7911C41.0397 34.5149 40.93 34.2499 40.7346 34.0546C40.5393 33.8592 40.2743 33.7495 39.9981 33.7495C39.7218 33.7495 39.4569 33.8592 39.2615 34.0546C39.0662 34.2499 38.9564 34.5149 38.9564 34.7911V41.7952L35.9794 46.7534C35.8371 46.9905 35.7948 47.2743 35.8618 47.5425C35.9288 47.8107 36.0996 48.0413 36.3367 48.1836C36.5737 48.3259 36.8576 48.3682 37.1258 48.3012C37.394 48.2342 37.6246 48.0634 37.7669 47.8263L40.8918 42.6181C40.9887 42.4563 41.0398 42.2712 41.0397 42.0827V34.7911ZM25.1233 34.5557C24.5843 34.0869 24.1475 33.5121 23.8401 32.8672C23.5327 32.2223 23.3612 31.521 23.3364 30.807C23.3116 30.0931 23.4339 29.3816 23.6958 28.7169C23.9577 28.0522 24.3535 27.4485 24.8587 26.9433C25.3639 26.4382 25.9676 26.0423 26.6323 25.7804C27.297 25.5185 28.0084 25.3962 28.7224 25.421C29.4364 25.4458 30.1377 25.6173 30.7826 25.9247C31.4275 26.2321 32.0022 26.6689 32.4711 27.2079C29.3044 28.8157 26.7311 31.389 25.1233 34.5557ZM47.525 27.2079C47.9939 26.6689 48.5687 26.2321 49.2136 25.9247C49.8585 25.6173 50.5597 25.4458 51.2737 25.421C51.9877 25.3962 52.6992 25.5185 53.3639 25.7804C54.0285 26.0423 54.6323 26.4382 55.1374 26.9433C55.6426 27.4485 56.0384 28.0522 56.3003 28.7169C56.5622 29.3816 56.6846 30.0931 56.6597 30.807C56.6349 31.521 56.4635 32.2223 56.1561 32.8672C55.8486 33.5121 55.4118 34.0869 54.8728 34.5557C53.265 31.389 50.6917 28.8157 47.525 27.2079Z" fill="#36998E"/>
</svg>
