<svg width="20" height="20" viewBox="0 0 20 20" fill="none" xmlns="http://www.w3.org/2000/svg">
<path d="M10.0072 18.1012C9.67664 18.1012 9.34398 17.9845 9.0787 17.7491L6.47581 15.5567H4.44586C2.91385 15.5567 1.66797 14.3108 1.66797 12.7788V4.4444C1.66727 2.91239 2.91316 1.6665 4.44517 1.6665H15.5567C17.0888 1.6665 18.3346 2.91239 18.3346 4.4444V12.7781C18.3346 14.3101 17.0888 15.556 15.5567 15.556H13.5761L10.9045 17.7644C10.6531 17.988 10.3315 18.1005 10.0065 18.1005L10.0072 18.1012ZM4.44517 3.05545C3.67916 3.05545 3.05622 3.67839 3.05622 4.4444V12.7781C3.05622 13.5441 3.67916 14.167 4.44517 14.167H6.72929C6.89319 14.167 7.05153 14.2247 7.17723 14.3302L9.98776 16.6984L12.8837 14.3261C13.0087 14.2233 13.165 14.167 13.3268 14.167H15.5574C16.3234 14.167 16.9464 13.5441 16.9464 12.7781V4.4444C16.9464 3.67839 16.3234 3.05545 15.5574 3.05545H4.44517Z" fill="#707070"/>
</svg>
