<svg width="14" height="14" viewBox="0 0 14 14" fill="none" xmlns="http://www.w3.org/2000/svg">
<path d="M11.4727 5.44718C11.4108 5.3847 11.3371 5.33511 11.2558 5.30127C11.1746 5.26742 11.0875 5.25 10.9995 5.25C10.9115 5.25 10.8243 5.26742 10.7431 5.30127C10.6619 5.33511 10.5882 5.3847 10.5262 5.44718L7.4732 8.50016C7.41123 8.56264 7.3375 8.61223 7.25627 8.64608C7.17504 8.67992 7.08792 8.69734 6.99992 8.69734C6.91192 8.69734 6.82479 8.67992 6.74356 8.64608C6.66233 8.61223 6.58861 8.56264 6.52664 8.50016L3.47365 5.44718C3.41168 5.3847 3.33796 5.33511 3.25673 5.30127C3.1755 5.26742 3.08837 5.25 3.00037 5.25C2.91237 5.25 2.82525 5.26742 2.74402 5.30127C2.66279 5.33511 2.58906 5.3847 2.52709 5.44718C2.40294 5.57207 2.33325 5.74102 2.33325 5.91712C2.33325 6.09323 2.40294 6.26218 2.52709 6.38707L5.58675 9.44672C5.9617 9.82122 6.46998 10.0316 6.99992 10.0316C7.52986 10.0316 8.03813 9.82122 8.41309 9.44672L11.4727 6.38707C11.5969 6.26218 11.6666 6.09323 11.6666 5.91712C11.6666 5.74102 11.5969 5.57207 11.4727 5.44718Z" fill="#707070"/>
</svg>
