<svg width="64" height="64" viewBox="0 0 64 64" fill="none" xmlns="http://www.w3.org/2000/svg">
<path d="M32.0014 51.3289C46.7291 51.3289 58.6654 41.632 58.6654 29.6645C58.6654 17.6969 46.7291 8 32.0014 8C17.2737 8 5.33744 17.6969 5.33744 29.6645C5.33744 34.3619 7.18101 38.7052 10.3057 42.2569C10.1078 44.8088 9.11831 47.0794 8.07675 48.8084C7.50389 49.7666 6.92062 50.5374 6.49358 51.0581C6.27485 51.3185 6.1082 51.5164 5.98321 51.6518C5.92072 51.7143 5.87905 51.7664 5.84781 51.7976L5.81656 51.8289C5.33744 52.308 5.20204 53.0163 5.46243 53.6412C5.72282 54.2661 6.32693 54.6724 7.00394 54.6724C9.99322 54.6724 13.0033 53.7454 15.5031 52.6621C17.8883 51.6206 19.9193 50.3811 21.1588 49.475C24.4709 50.6728 28.1372 51.3394 32.0014 51.3394V51.3289ZM18.6694 32.9975C16.8259 32.9975 15.3364 31.508 15.3364 29.6645C15.3364 27.8209 16.8259 26.3315 18.6694 26.3315C20.513 26.3315 22.0024 27.8209 22.0024 29.6645C22.0024 31.508 20.513 32.9975 18.6694 32.9975ZM32.0014 32.9975C30.1578 32.9975 28.6684 31.508 28.6684 29.6645C28.6684 27.8209 30.1578 26.3315 32.0014 26.3315C33.845 26.3315 35.3344 27.8209 35.3344 29.6645C35.3344 31.508 33.845 32.9975 32.0014 32.9975ZM48.6664 29.6645C48.6664 31.508 47.1769 32.9975 45.3334 32.9975C43.4898 32.9975 42.0004 31.508 42.0004 29.6645C42.0004 27.8209 43.4898 26.3315 45.3334 26.3315C47.1769 26.3315 48.6664 27.8209 48.6664 29.6645Z" fill="#36998E"/>
</svg>
