<svg width="24" height="24" viewBox="0 0 24 24" fill="none" xmlns="http://www.w3.org/2000/svg">
<path d="M14 7.83333V2.38333C14.7709 2.67445 15.4711 3.12609 16.0542 3.70833L18.9575 6.61333C19.5404 7.19573 19.9924 7.89575 20.2833 8.66667H14.8333C14.6123 8.66667 14.4004 8.57887 14.2441 8.42259C14.0878 8.26631 14 8.05435 14 7.83333ZM20.6667 10.7375V17.8333C20.6653 18.938 20.2259 19.997 19.4448 20.7782C18.6637 21.5593 17.6047 21.9987 16.5 22H8.16667C7.062 21.9987 6.00296 21.5593 5.22185 20.7782C4.44073 19.997 4.00132 18.938 4 17.8333V6.16667C4.00132 5.062 4.44073 4.00296 5.22185 3.22185C6.00296 2.44073 7.062 2.00132 8.16667 2L11.9292 2C12.065 2 12.1992 2.01083 12.3333 2.02V7.83333C12.3333 8.49637 12.5967 9.13226 13.0656 9.6011C13.5344 10.0699 14.1703 10.3333 14.8333 10.3333H20.6467C20.6558 10.4675 20.6667 10.6017 20.6667 10.7375ZM14 17.8333C14 17.6123 13.9122 17.4004 13.7559 17.2441C13.5996 17.0878 13.3877 17 13.1667 17H9C8.77899 17 8.56702 17.0878 8.41074 17.2441C8.25446 17.4004 8.16667 17.6123 8.16667 17.8333C8.16667 18.0543 8.25446 18.2663 8.41074 18.4226C8.56702 18.5789 8.77899 18.6667 9 18.6667H13.1667C13.3877 18.6667 13.5996 18.5789 13.7559 18.4226C13.9122 18.2663 14 18.0543 14 17.8333ZM16.5 14.5C16.5 14.279 16.4122 14.067 16.2559 13.9107C16.0996 13.7545 15.8877 13.6667 15.6667 13.6667H9C8.77899 13.6667 8.56702 13.7545 8.41074 13.9107C8.25446 14.067 8.16667 14.279 8.16667 14.5C8.16667 14.721 8.25446 14.933 8.41074 15.0893C8.56702 15.2455 8.77899 15.3333 9 15.3333H15.6667C15.8877 15.3333 16.0996 15.2455 16.2559 15.0893C16.4122 14.933 16.5 14.721 16.5 14.5Z" fill="#ABABAB"/>
</svg>
