<svg width="232" height="44" viewBox="0 0 232 44" fill="none" xmlns="http://www.w3.org/2000/svg">
<path d="M0 43.8426V34.9684H2.87928C3.59326 34.9355 4.30869 34.9807 5.01286 35.103C5.52396 35.24 5.97323 35.5467 6.28679 35.9729C6.64733 36.4755 6.8296 37.0841 6.80464 37.7021C6.81893 38.1789 6.71579 38.6518 6.50428 39.0793C6.32591 39.4227 6.07073 39.7204 5.75857 39.9492C5.47642 40.1464 5.16048 40.2903 4.82643 40.3737C4.20951 40.4666 3.58594 40.5082 2.96214 40.498H1.76072V43.8426H0ZM1.76072 36.501V38.9861H2.74464C3.21486 39.0133 3.68646 38.9679 4.14286 38.8515C4.37134 38.7656 4.56946 38.6144 4.7125 38.4166C4.84777 38.2105 4.91978 37.9694 4.91964 37.7228C4.92928 37.4296 4.8254 37.144 4.62964 36.9255C4.44036 36.715 4.18434 36.576 3.90464 36.532C3.47784 36.4909 3.04864 36.4806 2.62036 36.501H1.76072Z" fill="#36998E"/>
<path d="M12.2214 43.8423V34.9681H15.9914C16.6901 34.9379 17.3892 35.0183 18.0629 35.2063C18.4959 35.361 18.8619 35.6611 19.0986 36.0554C19.3569 36.4754 19.4898 36.9603 19.4818 37.4533C19.5086 38.0596 19.3009 38.6529 18.9018 39.1101C18.4288 39.5805 17.8057 39.87 17.1411 39.9281C17.4935 40.1287 17.8145 40.3799 18.0939 40.6737C18.4808 41.1221 18.8274 41.6038 19.1297 42.113L20.1654 43.8423H18.0629L16.7682 41.9163C16.4766 41.4729 16.1584 41.0476 15.8154 40.6426C15.6679 40.4775 15.4833 40.3497 15.2768 40.2699C14.9837 40.1883 14.6797 40.1534 14.3757 40.1663H14.0132V43.8734L12.2214 43.8423ZM14.0132 38.727H15.3389C15.8817 38.7373 16.4238 38.6852 16.9546 38.5716C17.1546 38.5012 17.3281 38.3711 17.4518 38.1989C17.5638 37.9965 17.6175 37.7671 17.6072 37.5361C17.6229 37.273 17.5377 37.0138 17.3689 36.8113C17.191 36.6154 16.9482 36.4904 16.6854 36.4592C16.5404 36.4592 16.1054 36.4592 15.3804 36.4592H14.0132V38.727Z" fill="#36998E"/>
<path d="M24.7742 39.4623C24.756 38.6827 24.8969 37.9075 25.1885 37.1842C25.3874 36.7296 25.6683 36.3154 26.017 35.9623C26.3413 35.6203 26.7327 35.3489 27.1667 35.165C27.7727 34.924 28.4202 34.8044 29.0724 34.8129C29.6463 34.7937 30.2181 34.8922 30.7525 35.1023C31.2868 35.3125 31.7725 35.6298 32.1795 36.0348C32.9338 36.9985 33.3436 38.1869 33.3436 39.4105C33.3436 40.6342 32.9338 41.8226 32.1795 42.7862C31.3202 43.5655 30.2015 43.9972 29.0413 43.9972C27.8811 43.9972 26.7625 43.5655 25.9031 42.7862C25.1019 41.8711 24.696 40.6759 24.7742 39.4623ZM26.6281 39.4002C26.5691 40.2193 26.8164 41.0311 27.322 41.6783C27.5422 41.9296 27.815 42.1295 28.1211 42.2637C28.4271 42.398 28.759 42.4632 29.0931 42.4549C29.425 42.4651 29.755 42.4017 30.0594 42.2692C30.3639 42.1367 30.6352 41.9384 30.8538 41.6886C31.3586 41.0255 31.6019 40.1999 31.5374 39.3691C31.6042 38.5541 31.3683 37.743 30.8745 37.091C30.6444 36.8504 30.3679 36.659 30.0617 36.5282C29.7556 36.3973 29.4261 36.3299 29.0931 36.3299C28.7601 36.3299 28.4306 36.3973 28.1245 36.5282C27.8183 36.659 27.5418 36.8504 27.3117 37.091C26.8072 37.7423 26.5635 38.5582 26.6281 39.3795V39.4002Z" fill="#36998E"/>
<path d="M38.7668 43.8425V34.9683H41.6461C42.3567 34.9356 43.0686 34.9808 43.7693 35.1029C44.2835 35.2392 44.7363 35.5459 45.0536 35.9727C45.4142 36.4753 45.5964 37.084 45.5715 37.702C45.5858 38.1787 45.4826 38.6517 45.2711 39.0792C45.0924 39.4255 44.8331 39.7238 44.5151 39.949C44.234 40.1482 43.9177 40.2923 43.5829 40.3736C42.9661 40.4672 42.3424 40.5087 41.7186 40.4978H40.5483V43.8425H38.7668ZM40.5586 36.5008V38.986H41.5943C42.0714 39.0137 42.5499 38.9683 43.0133 38.8514C43.243 38.767 43.4406 38.6128 43.578 38.4103C43.7155 38.2078 43.786 37.9673 43.7797 37.7227C43.7893 37.4295 43.6855 37.1439 43.4897 36.9254C43.3004 36.7149 43.0444 36.5759 42.7647 36.5319C42.3208 36.488 41.8741 36.4776 41.4286 36.5008H40.5586Z" fill="#36998E"/>
<path d="M51.009 43.843V34.9688H57.5858V36.5013H52.8215V38.4687H57.2751V39.9702H52.8215V42.3829H57.7826V43.874L51.009 43.843Z" fill="#36998E"/>
<path d="M63.2615 43.8423V34.9681H67.0315C67.7302 34.9379 68.4293 35.0183 69.1029 35.2063C69.536 35.361 69.902 35.6611 70.1386 36.0554C70.4044 36.4725 70.5413 36.9588 70.5322 37.4533C70.5562 38.061 70.3447 38.6545 69.9418 39.1101C69.4699 39.582 68.8462 39.8718 68.1811 39.9281C68.5366 40.1287 68.8611 40.3799 69.1443 40.6737C69.5348 41.1192 69.8817 41.6012 70.18 42.113L71.2675 43.8423H69.1236L67.829 41.9163C67.542 41.4624 67.2272 41.0267 66.8865 40.6116C66.737 40.4487 66.553 40.3213 66.3479 40.2388C66.0512 40.1578 65.7438 40.1229 65.4365 40.1352H65.074V43.8423H63.2615ZM65.0533 38.727H66.379C66.9201 38.751 67.4623 38.7127 67.9947 38.6131C68.1994 38.5517 68.3756 38.4195 68.4918 38.2403C68.6234 38.0451 68.6888 37.8127 68.6783 37.5776C68.694 37.3144 68.6088 37.0552 68.44 36.8527C68.2683 36.6543 68.0277 36.5285 67.7668 36.5006C67.6218 36.5006 67.1765 36.5006 66.4515 36.5006H65.0533V38.727Z" fill="#36998E"/>
<path d="M78.186 43.843V36.5013H75.5449V34.9688H82.6085V36.5013H79.9778V43.874L78.186 43.843Z" fill="#36998E"/>
<path d="M90.1071 43.8428V40.115L86.855 34.9375H88.9264L90.9978 38.4478L93.0693 34.9375H95.1407L91.8782 40.115V43.8428H90.1071Z" fill="#36998E"/>
<path d="M107.145 43.843V34.9688H109.786L111.401 41.0264L112.996 34.9688H115.689V43.843H114.022V36.8534L112.261 43.843H110.531L108.771 36.8534V43.843H107.145Z" fill="#36998E"/>
<path d="M129.464 43.843H127.517L126.74 41.8341H123.25L122.514 43.843H120.619L124.078 34.9688H125.974L129.464 43.843ZM126.171 40.3326L124.948 37.0397L123.768 40.3326H126.171Z" fill="#36998E"/>
<path d="M134.425 43.843V34.9688H136.176L139.821 40.9022V34.9688H141.479V43.843H139.687L136.093 38.0545V43.843H134.425Z" fill="#36998E"/>
<path d="M155.357 43.843H153.41L152.633 41.8341H149.081L148.345 43.843H146.45L149.909 34.9688H151.805L155.357 43.843ZM152.043 40.3326L150.821 37.0397L149.619 40.3326H152.043Z" fill="#36998E"/>
<path d="M164.399 40.6429V39.0896H168.262V42.631C167.789 43.0534 167.236 43.3773 166.636 43.5837C165.948 43.859 165.213 43.9997 164.471 43.9979C163.623 44.0204 162.784 43.8205 162.038 43.418C161.358 43.0386 160.815 42.4555 160.484 41.7509C160.133 41.0101 159.956 40.1991 159.966 39.3796C159.951 38.5238 160.147 37.6776 160.536 36.9151C160.921 36.2001 161.518 35.6215 162.245 35.2583C162.908 34.9461 163.635 34.7936 164.368 34.813C165.28 34.7632 166.183 35.0063 166.947 35.5068C167.576 35.9743 168.005 36.6623 168.148 37.4328L166.367 37.7642C166.255 37.3496 166.007 36.9847 165.663 36.7287C165.283 36.4656 164.829 36.3313 164.368 36.3456C164.022 36.3294 163.676 36.3876 163.355 36.5162C163.033 36.6448 162.743 36.8409 162.504 37.0911C161.994 37.7123 161.746 38.5065 161.81 39.3071C161.748 40.1569 161.998 41 162.514 41.6784C162.746 41.9356 163.031 42.1393 163.349 42.2752C163.667 42.4111 164.012 42.476 164.358 42.4654C164.744 42.4603 165.126 42.3866 165.486 42.2479C165.832 42.1096 166.159 41.9287 166.46 41.7094V40.6429H164.399Z" fill="#36998E"/>
<path d="M173.886 43.843V34.9688H180.473V36.5013H175.678V38.4687H180.131V39.9702H175.678V42.3829H180.639V43.874L173.886 43.843Z" fill="#36998E"/>
<path d="M186.107 43.843V34.9688H188.79L190.406 41.0264L191.99 34.9688H194.714V43.843H193.057V36.8534L191.296 43.843H189.536L187.775 36.8534V43.843H186.107Z" fill="#36998E"/>
<path d="M200.442 43.843V34.9688H207.029V36.5013H202.234V38.4687H206.687V39.9702H202.234V42.3829H207.195V43.874L200.442 43.843Z" fill="#36998E"/>
<path d="M212.705 43.843V34.9688H214.445L218.08 40.9022V34.9688H219.747V43.843H217.956L214.393 38.0545V43.843H212.705Z" fill="#36998E"/>
<path d="M227.619 43.843V36.5013H224.978V34.9688H232V36.5013H229.369V43.874L227.619 43.843Z" fill="#36998E"/>
<path d="M56.4463 1.94713C58.8285 1.94713 58.8285 1.94713 58.8285 4.52552V14.4249H47.736V4.52552C47.736 1.94713 47.736 1.94713 50.1181 1.94713V1.16016H39.0256V1.94713C41.3974 1.94713 41.3974 1.94713 41.3974 4.52552V25.5151C41.3974 28.0831 41.3974 28.0831 39.0256 28.0831V28.8804H50.1181V28.0831C47.736 28.0831 47.736 28.0831 47.736 25.5151V15.1601H58.8285V25.5151C58.8285 28.0831 58.8285 28.0831 56.4463 28.0831V28.8804H67.5388V28.0831C65.1671 28.0831 65.1671 28.0831 65.1671 25.5151V4.52552C65.1671 1.94713 65.1671 1.94713 67.5388 1.94713V1.16016H56.4463V1.94713Z" fill="#36998E"/>
<path d="M93.4939 25.3178L83.1367 0.962891H82.1528L73.5357 25.3178C72.7071 27.6062 71.5575 28.0826 68.7817 28.0826V28.8799H78.2896V28.0826C74.8821 28.0826 73.6599 27.6062 75.0892 23.5367L76.6324 19.1773H84.1932L86.2646 24.127C87.2174 26.4983 87.3728 28.0826 85.0839 28.0826H84.68V28.8799H96.57V28.0826H96.166C94.4778 28.0826 94.0117 26.4983 93.4939 25.3178ZM76.8603 18.38L80.0607 9.1951H80.1435L83.7892 18.38H76.8603Z" fill="#36998E"/>
<path d="M131.722 1.94713V1.16016H122.214V1.94713C125.622 1.94713 126.73 2.62021 125.539 6.50332L121.344 19.3746H121.261L116.269 5.91309C115.161 2.8066 115.078 1.94713 117.46 1.94713V1.16016H105.974V1.94713C107.559 1.94713 108.232 2.81695 108.947 4.72227L111.443 11.6497L107.911 20.2858H107.838L102.007 5.95451C100.785 2.84802 100.827 1.98855 103.198 1.98855V1.20158H91.7124V1.98855C93.297 1.98855 93.9288 2.85837 94.6849 4.76369L104.193 29.1186H105.228L111.919 12.6852L118.071 29.0772H119.107L127.03 4.72227C127.683 2.57879 128.946 1.94713 131.722 1.94713Z" fill="#36998E"/>
<path d="M151.328 25.3178L141.033 0.962891H139.998L131.329 25.3178C130.5 27.6062 129.35 28.0826 126.575 28.0826V28.8799H136.083V28.0826C132.675 28.0826 131.453 27.6062 132.872 23.5367L134.415 19.1773H141.986L143.964 24.127C144.917 26.4983 145.073 28.0826 142.773 28.0826H142.38V28.8799H154.321V28.0826H153.928C152.323 28.0826 151.846 26.4983 151.328 25.3178ZM134.695 18.38L137.905 9.1951H137.988L141.624 18.38H134.695Z" fill="#36998E"/>
<path d="M155.492 1.94713C157.874 1.94713 157.874 1.94713 157.874 4.52552V25.5151C157.874 28.0831 157.874 28.0831 155.492 28.0831V28.8804H166.584V28.0831C164.212 28.0831 164.212 28.0831 164.212 25.5151V4.52552C164.212 1.94713 164.212 1.94713 166.584 1.94713V1.16016H155.492V1.94713Z" fill="#36998E"/>
<path d="M173.316 10.21H175.729L176.713 0H172.322L173.316 10.21Z" fill="#36998E"/>
<path d="M192.974 1.94713V1.16016H181.882V1.94713C184.264 1.94713 184.264 1.94713 184.264 4.52552V25.5151C184.264 28.0831 184.264 28.0831 181.882 28.0831V28.8804H192.974V28.0831C190.603 28.0831 190.603 28.0831 190.603 25.5151V4.52552C190.571 1.94713 190.571 1.94713 192.974 1.94713Z" fill="#36998E"/>
</svg>
