<svg width="127" height="24" viewBox="0 0 127 24" fill="none" xmlns="http://www.w3.org/2000/svg">
<path d="M0 23.9145V19.074H1.57052C1.95996 19.0561 2.35019 19.0807 2.73429 19.1475C3.01307 19.2222 3.25812 19.3895 3.42916 19.6219C3.62582 19.8961 3.72524 20.2281 3.71162 20.5652C3.71942 20.8252 3.66316 21.0832 3.54779 21.3164C3.4505 21.5037 3.31131 21.666 3.14104 21.7908C2.98714 21.8984 2.81481 21.9769 2.6326 22.0224C2.29609 22.0731 1.95597 22.0957 1.61571 22.0902H0.96039V23.9145H0ZM0.96039 19.91V21.2655H1.49708C1.75356 21.2803 2.0108 21.2556 2.25974 21.1921C2.38436 21.1452 2.49243 21.0627 2.57045 20.9549C2.64424 20.8425 2.68352 20.7109 2.68344 20.5765C2.6887 20.4165 2.63204 20.2607 2.52526 20.1415C2.42201 20.0267 2.28237 19.9509 2.12981 19.9269C1.89701 19.9045 1.6629 19.8988 1.42928 19.91H0.96039Z" fill="#36998E"/>
<path d="M6.66626 23.9142V19.0737H8.72262C9.10374 19.0572 9.48506 19.1011 9.85249 19.2036C10.0887 19.288 10.2883 19.4517 10.4174 19.6667C10.5583 19.8958 10.6308 20.1604 10.6265 20.4292C10.6411 20.7599 10.5278 21.0836 10.3101 21.333C10.0521 21.5896 9.71222 21.7475 9.3497 21.7792C9.54192 21.8886 9.71704 22.0256 9.86944 22.1858C10.0805 22.4304 10.2695 22.6931 10.4344 22.9709L10.9993 23.9142H9.85249L9.14632 22.8636C8.98726 22.6218 8.81369 22.3898 8.62659 22.1689C8.54615 22.0788 8.44546 22.0091 8.33282 21.9655C8.17296 21.9211 8.00711 21.902 7.84133 21.9091H7.6436V23.9311L6.66626 23.9142ZM7.6436 21.124H8.36672C8.66276 21.1296 8.95847 21.1012 9.24801 21.0393C9.35709 21.0008 9.45174 20.9298 9.51918 20.8359C9.58025 20.7255 9.60958 20.6004 9.60392 20.4744C9.61252 20.3309 9.56605 20.1895 9.47399 20.0791C9.37692 19.9722 9.24451 19.904 9.10113 19.887C9.02204 19.887 8.78477 19.887 8.38931 19.887H7.6436V21.124Z" fill="#36998E"/>
<path d="M13.5133 21.5256C13.5033 21.1003 13.5802 20.6775 13.7392 20.283C13.8478 20.035 14.0009 19.8091 14.1912 19.6165C14.3681 19.43 14.5815 19.2819 14.8183 19.1816C15.1488 19.0502 15.502 18.9849 15.8577 18.9896C16.1708 18.9791 16.4827 19.0328 16.7741 19.1474C17.0656 19.2621 17.3305 19.4352 17.5525 19.6561C17.9639 20.1817 18.1875 20.8299 18.1875 21.4974C18.1875 22.1648 17.9639 22.813 17.5525 23.3387C17.0838 23.7637 16.4736 23.9992 15.8408 23.9992C15.208 23.9992 14.5978 23.7637 14.129 23.3387C13.692 22.8395 13.4706 22.1876 13.5133 21.5256ZM14.5245 21.4917C14.4923 21.9385 14.6272 22.3813 14.903 22.7343C15.0231 22.8714 15.1719 22.9805 15.3388 23.0537C15.5058 23.1269 15.6868 23.1625 15.869 23.1579C16.0501 23.1635 16.2301 23.1289 16.3961 23.0566C16.5622 22.9844 16.7102 22.8762 16.8294 22.74C17.1047 22.3782 17.2374 21.9279 17.2023 21.4748C17.2387 21.0302 17.11 20.5878 16.8407 20.2322C16.7152 20.1009 16.5644 19.9965 16.3974 19.9252C16.2304 19.8538 16.0506 19.817 15.869 19.817C15.6874 19.817 15.5077 19.8538 15.3407 19.9252C15.1737 19.9965 15.0229 20.1009 14.8973 20.2322C14.6222 20.5874 14.4893 21.0325 14.5245 21.4804V21.4917Z" fill="#36998E"/>
<path d="M21.1455 23.9144V19.074H22.716C23.1036 19.0562 23.4919 19.0808 23.8741 19.1474C24.1546 19.2218 24.4016 19.389 24.5747 19.6218C24.7713 19.896 24.8707 20.228 24.8571 20.5651C24.8649 20.8251 24.8087 21.0831 24.6933 21.3163C24.5958 21.5052 24.4544 21.6679 24.2809 21.7907C24.1276 21.8994 23.9551 21.978 23.7725 22.0223C23.436 22.0733 23.0958 22.096 22.7556 22.0901H22.1172V23.9144H21.1455ZM22.1228 19.9099V21.2655H22.6878C22.948 21.2805 23.209 21.2558 23.4617 21.192C23.5871 21.146 23.6948 21.0619 23.7698 20.9514C23.8448 20.841 23.8833 20.7098 23.8798 20.5764C23.885 20.4165 23.8284 20.2607 23.7216 20.1415C23.6184 20.0266 23.4787 19.9508 23.3262 19.9268C23.084 19.9029 22.8404 19.8972 22.5974 19.9099H22.1228Z" fill="#36998E"/>
<path d="M27.823 23.9147V19.0742H31.4103V19.9101H28.8116V20.9833H31.2409V21.8023H28.8116V23.1183H31.5177V23.9316L27.823 23.9147Z" fill="#36998E"/>
<path d="M34.5061 23.9142V19.0737H36.5625C36.9436 19.0572 37.3249 19.1011 37.6923 19.2036C37.9286 19.288 38.1282 19.4517 38.2573 19.6667C38.4022 19.8943 38.4769 20.1595 38.4719 20.4292C38.485 20.7607 38.3697 21.0844 38.1499 21.333C37.8925 21.5904 37.5523 21.7484 37.1895 21.7792C37.3834 21.8886 37.5604 22.0256 37.7149 22.1858C37.9279 22.4289 38.1171 22.6918 38.2799 22.9709L38.8731 23.9142H37.7036L36.9975 22.8636C36.8409 22.616 36.6692 22.3784 36.4834 22.1519C36.4019 22.0631 36.3015 21.9936 36.1896 21.9486C36.0278 21.9044 35.8601 21.8854 35.6925 21.8921H35.4947V23.9142H34.5061ZM35.4834 21.124H36.2066C36.5017 21.1371 36.7974 21.1162 37.0879 21.0618C37.1995 21.0284 37.2956 20.9563 37.359 20.8585C37.4308 20.752 37.4665 20.6253 37.4607 20.497C37.4693 20.3535 37.4228 20.2121 37.3308 20.1017C37.2371 19.9934 37.1059 19.9248 36.9636 19.9096C36.8845 19.9096 36.6416 19.9096 36.2461 19.9096H35.4834V21.124Z" fill="#36998E"/>
<path d="M42.6469 23.9147V19.9101H41.2063V19.0742H45.0592V19.9101H43.6242V23.9316L42.6469 23.9147Z" fill="#36998E"/>
<path d="M49.1494 23.9141V21.8807L47.3755 19.0566H48.5054L49.6352 20.9714L50.7651 19.0566H51.895L50.1154 21.8807V23.9141H49.1494Z" fill="#36998E"/>
<path d="M58.4426 23.9147V19.0742H59.8832L60.7645 22.3784L61.6345 19.0742H63.1033V23.9147H62.1938V20.1022L61.2334 23.9147H60.29L59.3296 20.1022V23.9147H58.4426Z" fill="#36998E"/>
<path d="M70.6168 23.9147H69.5547L69.131 22.819H67.2272L66.8261 23.9147H65.7922L67.6791 19.0742H68.7129L70.6168 23.9147ZM68.8203 22L68.1537 20.2039L67.5096 22H68.8203Z" fill="#36998E"/>
<path d="M73.323 23.9147V19.0742H74.2777L76.2663 22.3106V19.0742H77.1702V23.9147H76.1929L74.2325 20.7574V23.9147H73.323Z" fill="#36998E"/>
<path d="M84.7403 23.9147H83.6782L83.2545 22.819H81.3168L80.9157 23.9147H79.8818L81.7687 19.0742H82.8026L84.7403 23.9147ZM82.9325 22L82.2659 20.2039L81.6105 22H82.9325Z" fill="#36998E"/>
<path d="M89.6722 22.1697V21.3225H91.7795V23.2542C91.5213 23.4846 91.2198 23.6612 90.8925 23.7738C90.517 23.924 90.1162 24.0007 89.7118 23.9997C89.2492 24.012 88.7915 23.903 88.3842 23.6834C88.0135 23.4765 87.7171 23.1584 87.5368 22.7741C87.3454 22.3701 87.2488 21.9277 87.2543 21.4807C87.2463 21.0139 87.353 20.5523 87.565 20.1364C87.7753 19.7464 88.1008 19.4308 88.4972 19.2327C88.8589 19.0624 89.2556 18.9792 89.6553 18.9898C90.1526 18.9626 90.6455 19.0952 91.062 19.3682C91.4052 19.6232 91.6392 19.9985 91.7173 20.4188L90.7456 20.5995C90.6849 20.3734 90.5495 20.1743 90.3615 20.0347C90.1546 19.8912 89.907 19.8179 89.6553 19.8257C89.4666 19.8169 89.2782 19.8487 89.1028 19.9188C88.9273 19.989 88.769 20.0959 88.6384 20.2324C88.3607 20.5712 88.2251 21.0044 88.2599 21.4411C88.2262 21.9046 88.3628 22.3645 88.6441 22.7345C88.7704 22.8749 88.9258 22.9859 89.0995 23.0601C89.2732 23.1342 89.4609 23.1696 89.6497 23.1638C89.8603 23.161 90.0688 23.1209 90.2654 23.0452C90.454 22.9698 90.6324 22.8711 90.7965 22.7515V22.1697H89.6722Z" fill="#36998E"/>
<path d="M94.8469 23.9147V19.0742H98.4399V19.9101H95.8243V20.9833H98.2535V21.8023H95.8243V23.1183H98.5303V23.9316L94.8469 23.9147Z" fill="#36998E"/>
<path d="M101.513 23.9147V19.0742H102.976L103.858 22.3784L104.722 19.0742H106.208V23.9147H105.304V20.1022L104.344 23.9147H103.383L102.423 20.1022V23.9147H101.513Z" fill="#36998E"/>
<path d="M109.332 23.9147V19.0742H112.925V19.9101H110.309V20.9833H112.738V21.8023H110.309V23.1183H113.015V23.9316L109.332 23.9147Z" fill="#36998E"/>
<path d="M116.021 23.9147V19.0742H116.97L118.953 22.3106V19.0742H119.862V23.9147H118.885L116.942 20.7574V23.9147H116.021Z" fill="#36998E"/>
<path d="M124.156 23.9147V19.9101H122.715V19.0742H126.545V19.9101H125.11V23.9316L124.156 23.9147Z" fill="#36998E"/>
<path d="M30.7891 1.06207C32.0884 1.06207 32.0884 1.06207 32.0884 2.46847V7.86812H26.038V2.46847C26.038 1.06207 26.038 1.06207 27.3373 1.06207V0.632812H21.2869V1.06207C22.5806 1.06207 22.5806 1.06207 22.5806 2.46847V13.9173C22.5806 15.3181 22.5806 15.3181 21.2869 15.3181V15.753H27.3373V15.3181C26.038 15.3181 26.038 15.3181 26.038 13.9173V8.26914H32.0884V13.9173C32.0884 15.3181 32.0884 15.3181 30.7891 15.3181V15.753H36.8395V15.3181C35.5458 15.3181 35.5458 15.3181 35.5458 13.9173V2.46847C35.5458 1.06207 35.5458 1.06207 36.8395 1.06207V0.632812H30.7891V1.06207Z" fill="#36998E"/>
<path d="M50.9967 13.8099L45.3473 0.525391H44.8106L40.1104 13.8099C39.6584 15.0581 39.0314 15.3179 37.5173 15.3179V15.7529H42.7034V15.3179C40.8448 15.3179 40.1782 15.0581 40.9578 12.8384L41.7995 10.4605H45.9236L47.0534 13.1603C47.5732 14.4538 47.6579 15.3179 46.4094 15.3179H46.1891V15.7529H52.6745V15.3179H52.4542C51.5334 15.3179 51.2792 14.4538 50.9967 13.8099ZM41.9238 10.0256L43.6695 5.01569H43.7147L45.7032 10.0256H41.9238Z" fill="#36998E"/>
<path d="M71.8483 1.06207V0.632812H66.6622V1.06207C68.5209 1.06207 69.1254 1.4292 68.4757 3.54727L66.1877 10.5679H66.1425L63.4195 3.22532C62.815 1.53087 62.7698 1.06207 64.0692 1.06207V0.632812H57.8041V1.06207C58.6684 1.06207 59.0356 1.53652 59.4254 2.57578L60.7869 6.35441L58.8605 11.065H58.8209L55.6404 3.24791C54.9737 1.55346 54.9963 1.08467 56.29 1.08467V0.655405H50.0249V1.08467C50.8893 1.08467 51.2339 1.55911 51.6463 2.59837L56.8324 15.8829H57.3973L61.0468 6.91922L64.4025 15.8603H64.9674L69.2892 2.57578C69.6451 1.40661 70.3343 1.06207 71.8483 1.06207Z" fill="#36998E"/>
<path d="M82.5427 13.8099L76.9273 0.525391H76.3623L71.6338 13.8099C71.1819 15.0581 70.5548 15.3179 69.0408 15.3179V15.7529H74.2269V15.3179C72.3682 15.3179 71.7016 15.0581 72.4756 12.8384L73.3173 10.4605H77.447L78.526 13.1603C79.0458 14.4538 79.1305 15.3179 77.8764 15.3179H77.6617V15.7529H84.1754V15.3179H83.9607C83.085 15.3179 82.8252 14.4538 82.5427 13.8099ZM73.4699 10.0256L75.2212 5.01569H75.2663L77.2493 10.0256H73.4699Z" fill="#36998E"/>
<path d="M84.8137 1.06207C86.1131 1.06207 86.1131 1.06207 86.1131 2.46847V13.9173C86.1131 15.3181 86.1131 15.3181 84.8137 15.3181V15.753H90.8642V15.3181C89.5705 15.3181 89.5705 15.3181 89.5705 13.9173V2.46847C89.5705 1.06207 89.5705 1.06207 90.8642 1.06207V0.632812H84.8137V1.06207Z" fill="#36998E"/>
<path d="M94.5361 5.56909H95.8521L96.3887 0H93.9939L94.5361 5.56909Z" fill="#36998E"/>
<path d="M105.259 1.06207V0.632812H99.2083V1.06207C100.508 1.06207 100.508 1.06207 100.508 2.46847V13.9173C100.508 15.3181 100.508 15.3181 99.2083 15.3181V15.753H105.259V15.3181C103.965 15.3181 103.965 15.3181 103.965 13.9173V2.46847C103.948 1.06207 103.948 1.06207 105.259 1.06207Z" fill="#36998E"/>
</svg>
