<svg width="20" height="20" viewBox="0 0 20 20" fill="none" xmlns="http://www.w3.org/2000/svg">
<g clip-path="url(#clip0_170_1496)">
<path d="M16.2491 11.3101L9.99911 17.5001L3.74911 11.3101C3.33687 10.9089 3.01215 10.4267 2.7954 9.89393C2.57866 9.36111 2.47458 8.78919 2.48973 8.21418C2.50487 7.63916 2.63891 7.07351 2.88341 6.55285C3.1279 6.03218 3.47756 5.56778 3.91035 5.18888C4.34314 4.80999 4.8497 4.52481 5.39812 4.3513C5.94654 4.17779 6.52495 4.11972 7.09692 4.18073C7.66889 4.24175 8.22203 4.42053 8.72151 4.70582C9.22099 4.99111 9.65599 5.37673 9.99911 5.8384C10.3437 5.38008 10.7792 4.99783 11.2784 4.71557C11.7775 4.43331 12.3295 4.25711 12.8999 4.198C13.4703 4.13889 14.0467 4.19815 14.5931 4.37206C15.1395 4.54597 15.6441 4.83079 16.0754 5.2087C16.5067 5.58661 16.8553 6.04947 17.0995 6.56831C17.3436 7.08715 17.4781 7.6508 17.4944 8.22399C17.5107 8.79718 17.4085 9.36756 17.1942 9.89944C16.98 10.4313 16.6582 10.9133 16.2491 11.3151" stroke="#707070" stroke-width="1.5" stroke-linecap="round" stroke-linejoin="round"/>
</g>
<defs>
<clipPath id="clip0_170_1496">
<rect width="20" height="20" fill="white"/>
</clipPath>
</defs>
</svg>
