<svg width="16" height="16" viewBox="0 0 16 16" fill="none" xmlns="http://www.w3.org/2000/svg">
<path d="M6.22534 2.88812C6.15394 2.95894 6.09727 3.0432 6.05859 3.13603C6.01991 3.22887 6 3.32844 6 3.42901C6 3.52958 6.01991 3.62915 6.05859 3.72199C6.09727 3.81482 6.15394 3.89908 6.22534 3.9699L9.71447 7.45903C9.78588 7.52985 9.84255 7.61411 9.88123 7.70694C9.91991 7.79978 9.93982 7.89935 9.93982 7.99992C9.93982 8.10049 9.91991 8.20006 9.88123 8.2929C9.84255 8.38573 9.78588 8.46999 9.71447 8.54081L6.22534 12.0299C6.15394 12.1008 6.09727 12.185 6.05859 12.2779C6.01991 12.3707 6 12.4703 6 12.5708C6 12.6714 6.01991 12.771 6.05859 12.8638C6.09727 12.9566 6.15394 13.0409 6.22534 13.1117C6.36808 13.2536 6.56117 13.3333 6.76243 13.3333C6.96369 13.3333 7.15677 13.2536 7.29951 13.1117L10.7963 9.61497C11.2242 9.18645 11.4646 8.60557 11.4646 7.99992C11.4646 7.39427 11.2242 6.81339 10.7963 6.38486L7.29951 2.88812C7.15677 2.74623 6.96369 2.66659 6.76243 2.66659C6.56116 2.66659 6.36808 2.74623 6.22534 2.88812Z" fill="#ABABAB"/>
</svg>
