<svg width="36" height="36" viewBox="0 0 36 36" fill="none" xmlns="http://www.w3.org/2000/svg">
<path fill-rule="evenodd" clip-rule="evenodd" d="M9.68222 6.68222C12.0365 4.32791 15.2286 3.00366 18.5581 3C21.8876 3.00366 25.0796 4.32791 27.4339 6.68222C29.7883 9.03652 31.1125 12.2286 31.1162 15.5581C31.1162 22.1913 20.5674 31.2971 19.3693 32.3143L18.5581 33L17.7468 32.3143C16.5488 31.2971 6 22.1913 6 15.5581C6.00366 12.2286 7.32791 9.03652 9.68222 6.68222ZM15.0696 20.7789C16.1022 21.4689 17.3162 21.8371 18.5581 21.8371C20.2228 21.8351 21.8187 21.1729 22.9958 19.9958C24.1729 18.8187 24.8351 17.2228 24.8371 15.5581C24.8371 14.3162 24.4689 13.1022 23.7789 12.0696C23.089 11.0371 22.1083 10.2323 20.961 9.757C19.8136 9.28176 18.5511 9.15741 17.3331 9.39969C16.1151 9.64197 14.9963 10.24 14.1181 11.1181C13.24 11.9963 12.642 13.1151 12.3997 14.3331C12.1574 15.5511 12.2818 16.8136 12.757 17.961C13.2323 19.1083 14.0371 20.089 15.0696 20.7789ZM22.3255 15.5581C22.3255 17.6388 20.6388 19.3255 18.5581 19.3255C16.4774 19.3255 14.7907 17.6388 14.7907 15.5581C14.7907 13.4774 16.4774 11.7907 18.5581 11.7907C20.6388 11.7907 22.3255 13.4774 22.3255 15.5581Z" fill="#36998E"/>
</svg>
