<svg width="290" height="36" viewBox="0 0 290 36" fill="none" xmlns="http://www.w3.org/2000/svg">
<g clip-path="url(#clip0_411_3473)">
<g clip-path="url(#clip1_411_3473)">
<path d="M32.3903 31.626C32.3903 34.8145 32.3904 34.8145 35.3349 34.8145V35.7139H21.5936V34.7328C24.5381 34.7328 24.5381 34.7328 24.5381 31.5443V18.8312H10.7968V31.626C10.7968 34.8145 10.7968 34.8145 13.7414 34.8145V35.7139H0V34.7328C2.94458 34.7328 2.94458 34.7328 2.94458 31.5443V5.58668C2.94458 2.39818 2.94458 2.39818 0 2.39818V1.43074H13.7414V2.39818C10.7968 2.39818 10.7968 2.39818 10.7968 5.58668V17.8501H24.5381V5.58668C24.5381 2.39818 24.5381 2.39818 21.5936 2.39818V1.43074H35.3349V2.39818C32.3904 2.39818 32.3903 2.39818 32.3903 5.58668V31.626Z" fill="white"/>
<path d="M67.4799 31.3399C68.1206 32.8115 68.7068 34.7737 70.6699 34.7737H71.1606V35.7139H56.3968V34.7328H56.8876C59.7368 34.7328 59.6141 32.7706 58.3599 29.8274L55.8652 23.6957H46.5271L44.6185 29.1461C42.8463 34.2014 44.3731 34.7873 48.5855 34.7873V35.7139H36.8072V34.7328C40.2426 34.7328 41.674 34.1469 42.6964 31.299L53.4932 1.14459H54.7201L67.4799 31.3399ZM50.8485 11.3777L46.8542 22.7555H55.4426L50.9439 11.3777H50.8485Z" fill="white"/>
<path d="M101.888 23.9818H101.983L107.177 8.03936C108.649 3.243 107.286 2.39818 103.087 2.39818V1.43074H114.866V2.39818C111.43 2.39818 109.863 3.18849 108.977 5.83195L99.1614 36H97.9345L90.3276 15.6427L81.9847 36H80.7578L68.9522 5.83195C68.0252 3.48827 67.2345 2.39818 65.2715 2.39818V1.43074H79.5718V2.39818C76.6272 2.39818 76.5863 3.48827 78.0995 7.30356L85.311 25.0174H85.42L89.7823 14.3346L86.6878 5.79107C85.8017 3.44739 84.9701 2.35731 83.0071 2.35731V1.38986H97.2392V2.35731C94.2946 2.35731 94.3901 3.39288 95.7669 7.26268L101.888 23.9818Z" fill="white"/>
<path d="M139.131 31.3399C139.772 32.8115 140.358 34.7737 142.321 34.7737H142.812V35.7139H128.089V34.7328H128.648C131.497 34.7328 131.375 32.7706 130.12 29.8274L127.626 23.6957H118.247L116.338 29.1461C114.566 34.2014 116.093 34.7873 120.305 34.7873V35.7139H108.527V34.7328C111.962 34.7328 113.394 34.1469 114.416 31.299L125.213 1.14459H126.44L139.131 31.3399ZM122.5 11.3777L118.519 22.7555H127.108L122.595 11.3777H122.5Z" fill="white"/>
<path d="M158.026 1.43074V2.39818C155.081 2.39818 155.081 2.39818 155.081 5.58668V31.626C155.081 34.8145 155.081 34.8145 158.026 34.8145V35.7139H144.284V34.7328C147.229 34.7328 147.229 34.7328 147.229 31.5443V5.58668C147.229 2.39818 147.229 2.39818 144.284 2.39818V1.43074H158.026Z" fill="white"/>
<path d="M170.581 1.90735e-06L169.354 12.645H166.355L165.142 1.90735e-06H170.581Z" fill="white"/>
<path d="M190.716 1.43074V2.39818C187.771 2.39818 187.771 2.39818 187.771 5.58668V31.626C187.771 34.8145 187.771 34.8145 190.716 34.8145V35.7139H176.988V34.7328C179.919 34.7328 179.919 34.7328 179.919 31.5443V5.58668C179.919 2.39818 179.919 2.39818 176.988 2.39818V1.43074H190.716Z" fill="white"/>
<path d="M230.631 31.626C230.631 34.8145 230.631 34.8145 233.576 34.8145V35.7139H219.835V34.7328C222.779 34.7328 222.779 34.7328 222.779 31.5443V5.58668C222.779 2.39818 222.779 2.39818 219.835 2.39818V1.43074H236.03C243.391 1.43074 247.317 5.34141 247.317 10.7373C247.317 15.6427 243.882 21.5291 233.576 21.5291H230.631V31.626ZM232.594 20.589C237.502 20.589 239.22 15.5882 239.22 11.2687C239.22 7.34444 237.993 2.43906 234.067 2.43906H230.631V20.5481L232.594 20.589Z" fill="white"/>
<path d="M255.169 5.58668C255.169 2.39818 252.716 2.39818 249.717 2.39818V1.43074H262.722L271.801 24.4724L280.144 1.43074H289.959V2.39818C287.015 2.39818 287.015 2.39818 287.015 5.58668V31.626C287.015 34.8145 287.015 34.8145 289.959 34.8145V35.7139H276.272V34.7328C279.217 34.7328 279.217 34.7328 279.217 31.5443V6.81302L268.911 36H267.929L256.151 6.32248V31.626C256.151 34.8145 258.605 34.8145 261.604 34.8145V35.7139H249.826V34.7328C252.77 34.7328 255.279 34.7328 255.279 31.5443L255.169 5.58668Z" fill="white"/>
</g>
</g>
<defs>
<clipPath id="clip0_411_3473">
<rect width="290" height="36" fill="white"/>
</clipPath>
<clipPath id="clip1_411_3473">
<rect width="290" height="36" fill="white"/>
</clipPath>
</defs>
</svg>
