<svg width="129" height="20" viewBox="0 0 129 20" fill="none" xmlns="http://www.w3.org/2000/svg">
<g clip-path="url(#clip0_416_5007)">
<path d="M11.2721 2.30774C12.8092 2.30774 12.8092 2.30774 12.8092 3.97441V10.3846H5.63605V3.97441C5.63605 2.30774 5.63605 2.30774 7.17315 2.30774V1.79492H0V2.30774C1.5371 2.30774 1.5371 2.30774 1.5371 3.97441V17.557C1.5371 19.2237 1.5371 19.2237 0 19.2237V19.7365H7.17315V19.2237C5.63605 19.2237 5.63605 19.2237 5.63605 17.557V10.8975H12.8092V17.557C12.8092 19.2237 12.8092 19.2237 11.2721 19.2237V19.7365H18.4453V19.2237C16.9082 19.2237 16.9081 19.2237 16.9081 17.557V3.97441C16.9081 2.30774 16.9082 2.30774 18.4453 2.30774V1.79492H11.2721V2.30774Z" fill="white"/>
<path d="M29.7173 16.531L29.8454 10.1207C29.8952 7.94123 28.1802 6.65918 25.6183 6.65918C21.7756 6.65918 18.986 10.427 19.7261 12.0367C20.1388 12.9127 23.7468 11.7589 22.6722 10.7546C21.9606 10.1207 21.249 7.68482 23.825 7.68482C25.3622 7.68482 25.7962 8.71046 25.7464 10.7546L25.6966 13.454L22.5441 13.9597C20.5231 14.2945 19.2137 15.3201 19.2137 16.9085C19.1975 17.2979 19.2584 17.6866 19.393 18.0524C19.5275 18.4181 19.7329 18.7536 19.9974 19.0396C20.262 19.3256 20.5805 19.5564 20.9345 19.7187C21.2885 19.881 21.6711 19.9716 22.0602 19.9854C23.5973 19.9854 24.1951 19.4013 25.6183 17.9341H25.6682C25.6682 18.9597 26.1805 19.9854 27.9738 19.9854C29.5109 19.9854 30.2795 19.4726 31.5319 18.4469V18.1905C30.742 18.3258 29.6675 18.5751 29.7173 16.531ZM25.6183 17.3002C25.4712 17.4597 25.293 17.5874 25.0948 17.6756C24.8965 17.7638 24.6824 17.8106 24.4655 17.813C23.7539 17.813 23.391 16.9156 23.3127 16.3885C23.1561 15.3415 23.5191 14.4441 24.6434 14.1877L25.6682 13.9526L25.6183 17.3002Z" fill="white"/>
<path d="M47.138 7.43567C49.1874 7.43567 49.7212 7.89151 48.8245 10.3844L47.3657 14.4086H47.3088L45.8855 9.99978C45.2451 7.94849 44.8608 7.43567 46.1417 7.43567V6.92285H38.9401V7.43567C40.0929 7.43567 40.3206 8.04821 40.8615 9.23054L41.0394 9.74337L39.1464 14.5368H39.0895L37.6663 9.99978C37.0258 7.94849 36.6415 7.43567 37.9225 7.43567V6.92285H30.7422V7.43567C31.895 7.43567 32.1227 8.04821 32.6636 9.23054L37.0187 19.8645H37.6592L41.324 10.3559L45.2308 19.8645H45.8713L49.8421 9.23054C50.3545 7.87015 50.995 7.43567 52.7882 7.43567V6.92285H47.1522L47.138 7.43567Z" fill="white"/>
<path d="M63.2773 16.531L63.4054 10.1207C63.4552 7.94123 61.7402 6.65918 59.1784 6.65918C55.3356 6.65918 52.5461 10.427 53.2862 12.0367C53.6989 12.9127 57.3068 11.7589 56.2323 10.7546C55.5207 10.1207 54.809 7.68482 57.3851 7.68482C58.9222 7.68482 59.3563 8.71046 59.3065 10.7546L59.2567 13.454L56.1042 13.9597C54.0832 14.2945 52.7738 15.3201 52.7738 16.9085C52.7576 17.2979 52.8185 17.6866 52.953 18.0524C53.0875 18.4181 53.293 18.7536 53.5575 19.0396C53.8221 19.3256 54.1405 19.5564 54.4945 19.7187C54.8485 19.881 55.2311 19.9716 55.6203 19.9854C57.1574 19.9854 57.7552 19.4013 59.1784 17.9341H59.2282C59.2282 18.9597 59.7406 19.9854 61.5339 19.9854C63.071 19.9854 63.8395 19.4726 65.092 18.4469V18.1905C64.3021 18.3258 63.2275 18.5751 63.2773 16.531ZM59.1784 17.3002C59.0317 17.4604 58.8537 17.5886 58.6553 17.6768C58.457 17.765 58.2426 17.8114 58.0256 17.813C57.3139 17.813 56.951 16.9156 56.8727 16.3885C56.7162 15.3415 57.0791 14.4441 58.2035 14.1877L59.2282 13.9526L59.1784 17.3002Z" fill="white"/>
<path d="M69.1697 4.74358C69.4818 4.74546 69.7913 4.68578 70.0804 4.56796C70.3694 4.45014 70.6325 4.27648 70.8545 4.0569C71.0766 3.83732 71.2532 3.57611 71.3744 3.2882C71.4956 3.00029 71.5589 2.69132 71.5608 2.37891C71.5552 1.74849 71.302 1.14558 70.8559 0.700449C70.4098 0.255321 69.8067 0.00371666 69.1768 0C68.5496 0.00376778 67.9494 0.256294 67.5079 0.702223C67.0663 1.14815 66.8194 1.7511 66.8213 2.37891C66.8195 2.68877 66.8788 2.99594 66.996 3.28276C67.1132 3.56957 67.2859 3.83036 67.5041 4.05013C67.7224 4.2699 67.9819 4.4443 68.2677 4.56331C68.5536 4.68232 68.8601 4.74359 69.1697 4.74358Z" fill="white"/>
<path d="M71.2191 17.5573V6.66699H71.0128L65.8678 7.82084V8.20546C67.1487 8.20546 67.1487 8.20545 67.1487 9.48751V17.5573C67.1487 19.224 67.1487 19.224 65.6116 19.224V19.7368H72.7847V19.224C71.2191 19.224 71.2191 19.224 71.2191 17.5573Z" fill="white"/>
<path d="M76.3355 7.65654H77.9011L78.5344 1.04688H75.6951L76.3355 7.65654Z" fill="white"/>
<path d="M85.2097 4.7436C85.8389 4.74549 86.4431 4.49765 86.89 4.05439C87.3369 3.61113 87.5899 3.00861 87.5937 2.37892C87.5899 1.74792 87.3373 1.14393 86.8909 0.698405C86.4444 0.252878 85.8402 0.00186686 85.2097 0C84.5825 0.0037678 83.9823 0.256295 83.5408 0.702226C83.0992 1.14816 82.8524 1.75111 82.8543 2.37892C82.8533 2.68912 82.9136 2.99645 83.0315 3.28331C83.1495 3.57016 83.3228 3.83089 83.5416 4.05057C83.7605 4.27024 84.0204 4.44454 84.3067 4.56346C84.5929 4.68238 84.8998 4.7436 85.2097 4.7436Z" fill="white"/>
<path d="M87.2593 17.5573V6.66699H87.053L81.8795 7.82084V8.20546C83.1604 8.20546 83.1604 8.20545 83.1604 9.48751V17.5573C83.1604 19.224 83.1604 19.224 81.6233 19.224V19.7368H88.7964V19.224C87.2593 19.224 87.2593 19.224 87.2593 17.5573Z" fill="white"/>
<path d="M127.466 2.05176H99.7909C99.4135 2.05176 99.0514 2.20184 98.7845 2.46899C98.5176 2.73613 98.3677 3.09846 98.3677 3.47626V18.576C98.3677 18.9538 98.5176 19.3161 98.7845 19.5832C99.0514 19.8504 99.4135 20.0005 99.7909 20.0005H127.466C127.843 20.0005 128.205 19.8504 128.472 19.5832C128.739 19.3161 128.889 18.9538 128.889 18.576V3.47626C128.889 3.09846 128.739 2.73613 128.472 2.46899C128.205 2.20184 127.843 2.05176 127.466 2.05176ZM106.601 11.952H105.633V15.264C105.633 16.3181 105.633 16.3181 106.601 16.3181V16.6386H102.082V16.3181C103.05 16.3181 103.05 16.3181 103.05 15.264V6.717C103.05 5.66999 103.05 5.66999 102.082 5.66999V5.34235H107.412C109.832 5.34235 111.127 6.63865 111.127 8.41927C111.127 10.029 109.988 11.952 106.601 11.952ZM125.174 5.64862C124.207 5.64862 124.207 5.64862 124.207 6.69563V15.2426C124.207 16.2968 124.207 16.2968 125.174 16.2968V16.6173H120.663V16.2968C121.631 16.2968 121.631 16.2968 121.631 15.2426V7.10161L118.243 16.717H117.916L114.045 6.93779V15.264C114.045 16.3181 114.849 16.3181 115.817 16.3181V16.6386H111.938V16.3181C112.913 16.3181 113.717 16.3181 113.717 15.264V6.717C113.717 5.66999 112.913 5.66999 111.938 5.66999V5.34235H116.208L119.24 12.9207L121.986 5.32099H125.21L125.174 5.64862Z" fill="white"/>
<path d="M106.765 5.64844H105.633V11.6313H106.281C107.896 11.6313 108.458 9.97892 108.458 8.55442C108.458 7.26525 108.06 5.64844 106.765 5.64844Z" fill="white"/>
</g>
<defs>
<clipPath id="clip0_416_5007">
<rect width="128.889" height="20" fill="white"/>
</clipPath>
</defs>
</svg>
