<svg width="232" height="36" viewBox="0 0 232 36" fill="none" xmlns="http://www.w3.org/2000/svg">
<g clip-path="url(#clip0_415_4339)">
<path d="M20.2898 4.15355C23.0566 4.15355 23.0566 4.15355 23.0566 7.15354V18.692H10.1449V7.15354C10.1449 4.15355 10.1449 4.15355 12.9117 4.15355V3.23047H0V4.15355C2.76679 4.15355 2.76679 4.15355 2.76679 7.15354V31.6022C2.76679 34.6022 2.76679 34.6022 0 34.6022V35.5253H12.9117V34.6022C10.1449 34.6022 10.1449 34.6022 10.1449 31.6022V19.6151H23.0566V31.6022C23.0566 34.6022 23.0566 34.6022 20.2898 34.6022V35.5253H33.2015V34.6022C30.4347 34.6022 30.4347 34.6022 30.4347 31.6022V7.15354C30.4347 4.15355 30.4347 4.15355 33.2015 4.15355V3.23047H20.2898V4.15355Z" fill="white"/>
<path d="M53.4911 29.7565L53.7216 18.2181C53.8113 14.295 50.7243 11.9873 46.113 11.9873C39.196 11.9873 34.1748 18.7694 35.5069 21.6668C36.2499 23.2437 42.7441 21.1668 40.81 19.3591C39.529 18.2181 38.2481 13.8335 42.885 13.8335C45.6518 13.8335 46.4332 15.6796 46.3435 19.3591L46.2539 24.2181L40.5794 25.1283C36.9416 25.7309 34.5847 27.577 34.5847 30.436C34.5555 31.1369 34.6652 31.8367 34.9073 32.495C35.1494 33.1534 35.5192 33.7573 35.9954 34.2721C36.4716 34.7868 37.0448 35.2022 37.682 35.4944C38.3192 35.7866 39.0079 35.9497 39.7084 35.9745C42.4752 35.9745 43.5511 34.9232 46.113 32.2822H46.2026C46.2026 34.1283 47.1249 35.9745 50.3528 35.9745C53.1196 35.9745 54.503 35.0514 56.7574 33.2052V32.7437C55.3356 32.9873 53.4014 33.436 53.4911 29.7565ZM46.113 31.1411C45.848 31.4282 45.5274 31.6582 45.1705 31.8169C44.8137 31.9756 44.4283 32.0598 44.0379 32.0642C42.757 32.0642 42.1037 30.4488 41.9628 29.5001C41.681 27.6155 42.3342 26.0001 44.3581 25.5386L46.2026 25.1155L46.113 31.1411Z" fill="white"/>
<path d="M84.8483 13.385C88.5374 13.385 89.4981 14.2055 87.8841 18.6927L85.2582 25.9363H85.1558L82.5939 18.0004C81.4411 14.3081 80.7494 13.385 83.0551 13.385V12.4619H70.0921V13.385C72.1672 13.385 72.5771 14.4876 73.5506 16.6158L73.8709 17.5388L70.4636 26.1671H70.3611L67.7993 18.0004C66.6465 14.3081 65.9548 13.385 68.2604 13.385V12.4619H55.3359V13.385C57.411 13.385 57.8209 14.4876 58.7944 16.6158L66.6337 35.7568H67.7865L74.3832 18.6414L81.4155 35.7568H82.5683L89.7158 16.6158C90.6381 14.167 91.7909 13.385 95.0188 13.385V12.4619H84.874L84.8483 13.385Z" fill="white"/>
<path d="M113.899 29.7565L114.13 18.2181C114.219 14.295 111.132 11.9873 106.521 11.9873C99.6042 11.9873 94.583 18.7694 95.9151 21.6668C96.6581 23.2437 103.152 21.1668 101.218 19.3591C99.9372 18.2181 98.6563 13.8335 103.293 13.8335C106.06 13.8335 106.841 15.6796 106.752 19.3591L106.662 24.2181L100.988 25.1283C97.3498 25.7309 94.9929 27.577 94.9929 30.436C94.9637 31.1369 95.0734 31.8367 95.3155 32.495C95.5576 33.1534 95.9274 33.7573 96.4036 34.2721C96.8798 34.7868 97.453 35.2022 98.0902 35.4944C98.7274 35.7866 99.4161 35.9497 100.117 35.9745C102.883 35.9745 103.959 34.9232 106.521 32.2822H106.611C106.611 34.1283 107.533 35.9745 110.761 35.9745C113.528 35.9745 114.911 35.0514 117.166 33.2052V32.7437C115.744 32.9873 113.81 33.436 113.899 29.7565ZM106.521 31.1411C106.257 31.4294 105.937 31.6602 105.58 31.819C105.223 31.9778 104.837 32.0613 104.446 32.0642C103.165 32.0642 102.512 30.4488 102.371 29.5001C102.089 27.6155 102.742 26.0001 104.766 25.5386L106.611 25.1155L106.521 31.1411Z" fill="white"/>
<path d="M124.505 8.53845C125.067 8.54182 125.624 8.4344 126.145 8.22233C126.665 8.01025 127.139 7.69766 127.538 7.30242C127.938 6.90717 128.256 6.43701 128.474 5.91877C128.692 5.40053 128.806 4.84437 128.809 4.28204C128.799 3.14728 128.344 2.06204 127.541 1.26081C126.738 0.459578 125.652 0.00668998 124.518 0C123.389 0.00678201 122.309 0.46133 121.514 1.264C120.719 2.06667 120.275 3.15198 120.278 4.28204C120.275 4.83979 120.382 5.3927 120.593 5.90896C120.804 6.42522 121.115 6.89465 121.507 7.29023C121.9 7.68581 122.367 7.99975 122.882 8.21396C123.396 8.42818 123.948 8.53846 124.505 8.53845Z" fill="white"/>
<path d="M128.194 31.6026V12H127.823L118.562 14.0769V14.7692C120.868 14.7692 120.868 14.7692 120.868 17.0769V31.6026C120.868 34.6026 120.868 34.6026 118.101 34.6026V35.5257H131.012V34.6026C128.194 34.6026 128.194 34.6026 128.194 31.6026Z" fill="white"/>
<path d="M137.404 13.7822H140.222L141.362 1.88477H136.251L137.404 13.7822Z" fill="white"/>
<path d="M153.378 8.53847C154.51 8.54189 155.598 8.09576 156.402 7.29789C157.206 6.50003 157.662 5.4155 157.669 4.28206C157.662 3.14625 157.207 2.05908 156.404 1.25713C155.6 0.455181 154.512 0.00336034 153.378 0C152.249 0.00678203 151.168 0.461331 150.373 1.26401C149.579 2.06668 149.134 3.15199 149.138 4.28206C149.136 4.84041 149.244 5.39361 149.457 5.90995C149.669 6.42629 149.981 6.89561 150.375 7.29102C150.769 7.68644 151.237 8.00016 151.752 8.21422C152.267 8.42829 152.82 8.53848 153.378 8.53847Z" fill="white"/>
<path d="M157.067 31.6026V12H156.695L147.383 14.0769V14.7692C149.689 14.7692 149.689 14.7692 149.689 17.0769V31.6026C149.689 34.6026 149.689 34.6026 146.922 34.6026V35.5257H159.834V34.6026C157.067 34.6026 157.067 34.6026 157.067 31.6026Z" fill="white"/>
<path d="M229.439 3.69238H179.624C178.944 3.69238 178.293 3.96253 177.812 4.44339C177.332 4.92426 177.062 5.57644 177.062 6.25648V33.4359C177.062 34.116 177.332 34.7682 177.812 35.249C178.293 35.7299 178.944 36 179.624 36H229.439C230.118 36 230.77 35.7299 231.25 35.249C231.731 34.7682 232 34.116 232 33.4359V6.25648C232 5.57644 231.731 4.92426 231.25 4.44339C230.77 3.96253 230.118 3.69238 229.439 3.69238ZM191.882 21.5129H190.14V27.4744C190.14 29.3719 190.14 29.3719 191.882 29.3719V29.9488H183.748V29.3719C185.49 29.3719 185.49 29.3719 185.49 27.4744V12.0898C185.49 10.2052 185.49 10.2052 183.748 10.2052V9.61545H193.342C197.697 9.61545 200.029 11.9488 200.029 15.1539C200.029 18.0513 197.979 21.5129 191.882 21.5129ZM225.314 10.1667C223.572 10.1667 223.572 10.1667 223.572 12.0514V27.436C223.572 29.3334 223.572 29.3334 225.314 29.3334V29.9103H217.193V29.3334C218.935 29.3334 218.935 29.3334 218.935 27.436V12.7821L212.838 30.0898H212.249L205.28 12.4872V27.4744C205.28 29.3719 206.728 29.3719 208.47 29.3719V29.9488H201.489V29.3719C203.244 29.3719 204.691 29.3719 204.691 27.4744V12.0898C204.691 10.2052 203.244 10.2052 201.489 10.2052V9.61545H209.174L214.631 23.2565L219.576 9.57699H225.378L225.314 10.1667Z" fill="white"/>
<path d="M192.176 10.167H190.139V20.9362H191.305C194.213 20.9362 195.225 17.9619 195.225 15.3978C195.225 13.0772 194.507 10.167 192.176 10.167Z" fill="white"/>
</g>
<defs>
<clipPath id="clip0_415_4339">
<rect width="232" height="36" fill="white"/>
</clipPath>
</defs>
</svg>
