<svg width="25" height="24" viewBox="0 0 25 24" fill="none" xmlns="http://www.w3.org/2000/svg">
<path d="M18.2756 4.8111L5.3119 17.7748C4.98647 18.1002 5.03923 18.6806 5.42975 19.0711C5.82027 19.4616 6.40066 19.5144 6.7261 19.189L19.6897 6.22532C20.0152 5.89988 19.9624 5.3195 19.5719 4.92897C19.1814 4.53842 18.601 4.48566 18.2756 4.8111Z" fill="#E95050"/>
<path d="M5.31427 6.22516L18.2779 19.1888C18.6034 19.5143 19.1838 19.4615 19.5743 19.071C19.9648 18.6805 20.0176 18.1001 19.6921 17.7746L6.72849 4.811C6.40305 4.48556 5.82267 4.53832 5.43215 4.92885C5.0416 5.31934 4.98883 5.89973 5.31427 6.22516Z" fill="#E95050"/>
</svg>
