<svg width="60" height="50" viewBox="0 0 60 50" fill="none" xmlns="http://www.w3.org/2000/svg">
<path d="M3.31043 43.6902C1.10443 40.2029 0.00206177 35.8435 0.00336709 30.6122C-0.0868623 24.2847 1.63812 18.0694 4.96395 12.7387C8.271 7.47594 13.2639 3.22969 19.9426 0L21.7381 3.58372C17.6549 5.36785 14.0794 8.18437 11.346 11.77C8.44818 15.4843 6.99929 19.246 6.99929 23.0552C6.96994 24.4663 7.16129 25.8732 7.56611 27.2222C9.58991 25.5205 12.1289 24.5955 14.7461 24.6062C18.0017 24.525 21.1578 25.7604 23.5325 28.0453C24.7392 29.2361 25.6839 30.6775 26.3032 32.2731C26.9225 33.8686 27.2022 35.5814 27.1235 37.2967C27.1518 39.58 26.5629 41.8266 25.422 43.7876C24.323 45.6835 22.7605 47.2526 20.8891 48.3399C19.0176 49.4271 16.9019 49.995 14.751 49.9873C12.4696 50.0794 10.2057 49.5441 8.19406 48.4369C6.18241 47.3296 4.49626 45.6908 3.31043 43.6902ZM36.188 43.6902C33.9833 40.2029 32.8813 35.8435 32.882 30.6122C32.7917 24.2847 34.5167 18.0694 37.8425 12.7387C41.1496 7.47594 46.1425 3.22969 52.8212 0L54.6156 3.58372C50.5327 5.36838 46.9575 8.18481 44.2236 11.77C41.3258 15.4843 39.8769 19.246 39.8769 23.0552C39.848 24.4663 40.0394 25.8731 40.4437 27.2222C42.4782 25.5392 45.0107 24.6166 47.6246 24.6062C50.8973 24.5069 54.0745 25.7439 56.4581 28.0453C58.7418 30.522 60.0098 33.8038 59.9999 37.2122C59.9901 40.6205 58.7031 43.8947 56.4053 46.3574C55.2563 47.5407 53.8853 48.4727 52.3751 49.0971C50.8649 49.7215 49.2468 50.0254 47.6188 49.9903C45.3388 50.0802 43.0768 49.5436 41.067 48.4359C39.0572 47.3282 37.3727 45.6897 36.188 43.6902Z" fill="#BFBFBF"/>
</svg>
