<svg width="16" height="16" viewBox="0 0 16 16" fill="none" xmlns="http://www.w3.org/2000/svg">
<path d="M7.99992 1.33301C6.68138 1.33301 5.39245 1.724 4.29612 2.45654C3.19979 3.18909 2.34531 4.23028 1.84072 5.44845C1.33614 6.66663 1.20412 8.00707 1.46135 9.30028C1.71859 10.5935 2.35353 11.7814 3.28588 12.7137C4.21823 13.6461 5.40611 14.281 6.69932 14.5382C7.99253 14.7955 9.33297 14.6635 10.5511 14.1589C11.7693 13.6543 12.8105 12.7998 13.543 11.7035C14.2756 10.6071 14.6666 9.31822 14.6666 7.99967C14.6647 6.23215 13.9617 4.53757 12.7119 3.28774C11.462 2.03791 9.76744 1.33492 7.99992 1.33301ZM7.99992 13.5552C6.90114 13.5552 5.82703 13.2294 4.91342 12.6189C3.99981 12.0085 3.28774 11.1408 2.86726 10.1257C2.44677 9.11055 2.33675 7.99351 2.55111 6.91584C2.76548 5.83817 3.29459 4.84826 4.07155 4.0713C4.84851 3.29434 5.83841 2.76523 6.91609 2.55087C7.99376 2.3365 9.11079 2.44652 10.1259 2.86701C11.1411 3.2875 12.0087 3.99957 12.6192 4.91317C13.2296 5.82678 13.5555 6.90089 13.5555 7.99967C13.5539 9.4726 12.968 10.8847 11.9265 11.9263C10.885 12.9678 9.47285 13.5536 7.99992 13.5552Z" fill="#484848"/>
<path d="M8.39814 4.14537C8.07777 4.08699 7.74848 4.09975 7.43358 4.18272C7.11868 4.2657 6.82587 4.41687 6.57586 4.62554C6.32585 4.8342 6.12476 5.09527 5.98682 5.39025C5.84887 5.68524 5.77744 6.00694 5.77759 6.33259C5.77759 6.47993 5.83612 6.62124 5.94031 6.72543C6.04449 6.82961 6.1858 6.88814 6.33314 6.88814C6.48049 6.88814 6.62179 6.82961 6.72598 6.72543C6.83017 6.62124 6.8887 6.47993 6.8887 6.33259C6.88856 6.16913 6.92449 6.00766 6.99392 5.85968C7.06335 5.7117 7.16457 5.58086 7.29038 5.47649C7.41618 5.37213 7.56346 5.2968 7.72171 5.25589C7.87997 5.21498 8.0453 5.20949 8.20592 5.23981C8.42539 5.28241 8.62717 5.38947 8.7855 5.54731C8.94383 5.70514 9.05152 5.90659 9.09481 6.12592C9.13853 6.35615 9.10834 6.5943 9.00856 6.80633C8.90878 7.01837 8.74452 7.19342 8.53925 7.30648C8.19935 7.5034 7.91847 7.78787 7.72588 8.13026C7.53329 8.47264 7.43604 8.8604 7.44425 9.25314V9.66592C7.44425 9.81326 7.50279 9.95457 7.60697 10.0588C7.71116 10.1629 7.85247 10.2215 7.99981 10.2215C8.14715 10.2215 8.28846 10.1629 8.39265 10.0588C8.49683 9.95457 8.55537 9.81326 8.55537 9.66592V9.25314C8.54839 9.05982 8.59248 8.86807 8.68318 8.6972C8.77388 8.52632 8.908 8.38236 9.07203 8.27981C9.47454 8.05874 9.79867 7.7184 9.99986 7.30559C10.201 6.89278 10.2694 6.42779 10.1955 5.97455C10.1216 5.52131 9.90917 5.10208 9.58731 4.77453C9.26545 4.44698 8.85002 4.22718 8.39814 4.14537Z" fill="#484848"/>
<path d="M8.55545 11.3329C8.55545 11.0261 8.30672 10.7773 7.99989 10.7773C7.69307 10.7773 7.44434 11.0261 7.44434 11.3329C7.44434 11.6397 7.69307 11.8885 7.99989 11.8885C8.30672 11.8885 8.55545 11.6397 8.55545 11.3329Z" fill="#484848"/>
</svg>
