<svg width="64" height="64" viewBox="0 0 64 64" fill="none" xmlns="http://www.w3.org/2000/svg">
<path d="M13.5223 5.85533C12.5327 5.08451 11.1265 5.17826 10.2307 6.06365L6.06413 10.2302C5.17874 11.1156 5.08499 12.5218 5.84539 13.5218L14.1785 24.3549C14.6473 24.9695 15.3868 25.334 16.1576 25.334H21.7929L33.1468 36.6879C31.6156 39.7087 32.1052 43.5003 34.6364 46.0211L46.3028 57.6874C47.6048 58.9895 49.7194 58.9895 51.0214 57.6874L57.6879 51.0209C58.99 49.7189 58.99 47.6043 57.6879 46.3023L46.0215 34.6359C43.5008 32.1151 39.7092 31.6151 36.6884 33.1464L25.3345 21.7925V16.1676C25.3345 15.3864 24.9699 14.6572 24.3554 14.1885L13.5223 5.85533ZM7.40785 46.594C6.08497 47.9168 5.33498 49.7189 5.33498 51.5938C5.33498 55.5 8.50158 58.6666 12.4077 58.6666C14.2827 58.6666 16.0847 57.9166 17.4076 56.5937L29.6782 44.3232C28.8657 42.1461 28.7407 39.7816 29.3032 37.5421L22.8762 31.1152L7.40785 46.594ZM58.6671 20.3342C58.6671 19.2404 58.5525 18.178 58.3337 17.1571C58.0837 15.9905 56.6567 15.6884 55.813 16.5322L49.1569 23.1883C48.8444 23.5007 48.4173 23.6778 47.9798 23.6778H42.0008C41.0841 23.6778 40.3342 22.9278 40.3342 22.0112V16.0218C40.3342 15.5843 40.5112 15.1572 40.8237 14.8447L47.4798 8.1886C48.3236 7.34487 48.0215 5.91782 46.8548 5.66783C45.8236 5.44908 44.7611 5.3345 43.6674 5.3345C35.3864 5.3345 28.6678 12.0531 28.6678 20.3342V20.4175L37.553 29.3027C41.3029 28.3548 45.4486 29.3548 48.3861 32.2922L50.0214 33.9276C55.1255 31.5318 58.6671 26.3444 58.6671 20.3342ZM16.1681 50.3335C16.1681 51.7188 15.0535 52.8334 13.6681 52.8334C12.2827 52.8334 11.1682 51.7188 11.1682 50.3335C11.1682 48.9481 12.2827 47.8335 13.6681 47.8335C15.0535 47.8335 16.1681 48.9481 16.1681 50.3335Z" fill="#36998E"/>
</svg>
