<svg width="80" height="80" viewBox="0 0 80 80" fill="none" xmlns="http://www.w3.org/2000/svg">
<rect width="80" height="80" rx="40" fill="#F5FAF9"/>
<path fill-rule="evenodd" clip-rule="evenodd" d="M39.5833 23.333C38.1458 23.333 35.7438 23.8851 33.4833 24.4997C31.1708 25.1247 28.8396 25.8643 27.4688 26.3122C26.8956 26.5014 26.3875 26.8486 26.0028 27.3136C25.618 27.7787 25.3723 28.3429 25.2938 28.9413C24.0521 38.2684 26.9333 45.1809 30.4292 49.7538C31.9116 51.71 33.6792 53.4327 35.6729 54.8643C36.4771 55.433 37.2229 55.8684 37.8563 56.1663C38.4396 56.4413 39.0667 56.6663 39.5833 56.6663C40.1 56.6663 40.725 56.4413 41.3104 56.1663C42.0739 55.7952 42.8044 55.3596 43.4938 54.8643C45.4875 53.4327 47.2551 51.7101 48.7375 49.7538C52.2333 45.1809 55.1146 38.2684 53.8729 28.9413C53.7945 28.3426 53.5489 27.7781 53.1642 27.3127C52.7794 26.8472 52.2712 26.4997 51.6979 26.3101C49.7079 25.6576 47.7025 25.0533 45.6833 24.4976C43.4229 23.8872 41.0208 23.333 39.5833 23.333ZM39.5833 33.7497C40.3213 33.7486 41.0359 34.0087 41.6005 34.484C42.1651 34.9592 42.5433 35.619 42.668 36.3464C42.7928 37.0737 42.6561 37.8218 42.2822 38.4581C41.9082 39.0943 41.3212 39.5777 40.625 39.8226L41.4271 43.9684C41.4563 44.1192 41.4517 44.2746 41.4138 44.4234C41.3759 44.5723 41.3056 44.7109 41.2078 44.8293C41.1101 44.9478 40.9873 45.0432 40.8484 45.1086C40.7095 45.1741 40.5578 45.208 40.4042 45.208H38.7625C38.6091 45.2077 38.4576 45.1736 38.319 45.108C38.1803 45.0424 38.0578 44.947 37.9603 44.8285C37.8627 44.7101 37.7926 44.5716 37.7548 44.4229C37.717 44.2742 37.7125 44.119 37.7417 43.9684L38.5417 39.8226C37.8455 39.5777 37.2585 39.0943 36.8845 38.4581C36.5106 37.8218 36.3739 37.0737 36.4987 36.3464C36.6234 35.619 37.0016 34.9592 37.5662 34.484C38.1308 34.0087 38.8453 33.7486 39.5833 33.7497Z" fill="#36998E"/>
</svg>
