<svg width="24" height="24" viewBox="0 0 24 24" fill="none" xmlns="http://www.w3.org/2000/svg">
<path d="M22 12C22 17.5234 17.5234 22 12 22C6.47656 22 2 17.5234 2 12C2 6.47656 6.47656 2 12 2C17.5234 2 22 6.47656 22 12ZM12 3.875C7.51172 3.875 3.875 7.51172 3.875 12C3.875 16.4883 7.51172 20.125 12 20.125C16.4883 20.125 20.125 16.4883 20.125 12C20.125 7.51172 16.4883 3.875 12 3.875Z" fill="#36998E"/>
<path d="M12.544 7.35152C12.4437 7.1367 12.2316 7 11.9986 7C11.7657 7 11.5555 7.1367 11.4532 7.35152L10.2356 9.93522L7.51617 10.3492C7.28892 10.3844 7.09954 10.5484 7.02947 10.773C6.95941 10.9976 7.01622 11.2456 7.17908 11.4116L9.15235 13.4251L8.68649 16.2704C8.64862 16.5048 8.74331 16.743 8.93079 16.8817C9.11827 17.0204 9.36635 17.0379 9.57087 16.9266L12.0005 15.5889L14.4302 16.9266C14.6347 17.0379 14.8828 17.0223 15.0703 16.8817C15.2578 16.7411 15.3524 16.5048 15.3146 16.2704L14.8468 13.4251L16.8201 11.4116C16.983 11.2456 17.0417 10.9976 16.9697 10.773C16.8977 10.5484 16.7103 10.3844 16.483 10.3492L13.7617 9.93522L12.544 7.35152Z" fill="#36998E"/>
</svg>
