<svg width="64" height="64" viewBox="0 0 64 64" fill="none" xmlns="http://www.w3.org/2000/svg">
<g clip-path="url(#clip0_246_5150)">
<path fill-rule="evenodd" clip-rule="evenodd" d="M55.101 29.858H57.199C60.9887 29.858 63.9998 32.9766 63.9998 36.7663V54.0906C64.0124 55.9014 63.301 57.6423 62.0245 58.926C60.7471 60.2101 59.0097 60.9304 57.199 60.9269H6.94406C3.15435 60.9269 0 57.8803 0 54.0906V36.7663C0 32.9766 3.15435 29.858 6.94406 29.858H9.04204L27.4881 12.5986C27.1588 11.9194 26.9883 11.1744 26.9888 10.4196C26.987 7.61244 29.2612 5.33504 32.0679 5.33325C34.8751 5.33191 37.1525 7.60573 37.1543 10.4129C37.1547 11.1699 36.9843 11.918 36.6549 12.5995L55.101 29.858ZM23.7673 42.7439H25.7431C26.1726 42.7439 26.416 42.271 26.416 41.7274C26.416 41.2549 26.2156 40.7394 25.7431 40.7394H19.5579C19.0854 40.7394 18.8845 41.2549 18.8845 41.7274C18.8845 42.271 19.1284 42.7439 19.5579 42.7439H21.4765V50.4625C21.4765 50.9206 22.0635 51.1497 22.6219 51.1497C23.1798 51.1497 23.7673 50.9206 23.7673 50.4625V42.7439ZM33.2737 50.7126C33.3601 51.0128 33.6465 51.1385 34.0044 51.1385C34.6201 51.1385 35.4362 50.7578 35.4362 50.2285C35.4321 50.1761 35.4227 50.1242 35.4075 50.0736L32.7301 41.3421C32.5726 40.841 31.9283 40.5976 31.2693 40.5976C30.6111 40.5976 29.9668 40.841 29.8093 41.3421L27.1462 50.0759C27.1306 50.1273 27.1212 50.1801 27.1172 50.2329C27.1172 50.7631 27.9337 51.1497 28.5489 51.1497C28.9069 51.1497 29.1932 51.0128 29.2796 50.7126L29.7659 48.9005H32.7874L33.2737 50.7126ZM43.2393 51.0065C43.3252 51.1636 43.5399 51.2352 43.7686 51.2352C44.3847 51.2352 45.2581 50.7488 45.2581 50.1331C45.2527 49.9904 45.2084 49.8517 45.1287 49.7318L42.6518 45.9094L45.029 42.101C45.1189 41.9703 45.1686 41.8159 45.1722 41.6571C45.1722 41.0558 44.356 40.5976 43.7256 40.5976C43.4473 40.5752 43.182 40.722 43.0527 40.9699L41.1484 44.2911L39.2446 40.9699C39.1149 40.722 38.8505 40.5752 38.5713 40.5976C37.9417 40.5976 37.1256 41.0558 37.1256 41.6571C37.1283 41.8159 37.1784 41.9703 37.2688 42.101L39.6451 45.9094L37.1686 49.7318C37.0894 49.8517 37.0447 49.9904 37.0397 50.1331C37.0397 50.7488 37.9131 51.2352 38.5288 51.2352C38.7332 51.2544 38.9328 51.168 39.0585 51.0065L41.1484 47.4557L43.2393 51.0065ZM28.9257 14.3923L12.3937 29.858H51.7493L35.2174 14.3878C33.3802 15.8634 30.7646 15.8652 28.9257 14.3923ZM32.315 47.1824H30.2246L31.2693 43.3448L32.315 47.1824Z" fill="#36998E"/>
</g>
<defs>
<clipPath id="clip0_246_5150">
<rect width="64" height="64" fill="white"/>
</clipPath>
</defs>
</svg>
