<svg width="20" height="20" viewBox="0 0 20 20" fill="none" xmlns="http://www.w3.org/2000/svg">
<path d="M10.0001 12.7781C9.45069 12.7781 8.91363 12.6152 8.45683 12.31C8.00003 12.0047 7.64399 11.5709 7.43375 11.0633C7.22351 10.5558 7.1685 9.99725 7.27568 9.45841C7.38286 8.91957 7.64742 8.42462 8.0359 8.03614C8.42438 7.64766 8.91933 7.3831 9.45816 7.27592C9.997 7.16874 10.5555 7.22375 11.0631 7.434C11.5707 7.64424 12.0045 8.00027 12.3097 8.45708C12.6149 8.91388 12.7779 9.45094 12.7779 10.0003C12.7779 10.737 12.4852 11.4436 11.9643 11.9645C11.4433 12.4854 10.7368 12.7781 10.0001 12.7781ZM5.61328 12.7781H2.36119C2.17701 12.7781 2.00038 12.7049 1.87015 12.5747C1.73991 12.4445 1.66675 12.2678 1.66675 12.0837C1.67333 11.0865 2.036 10.1245 2.68936 9.37122C3.34271 8.6179 4.24374 8.12284 5.22994 7.97533C5.34454 7.95927 5.46133 7.97211 5.56971 8.01267C5.67809 8.05323 5.77461 8.12023 5.85051 8.20758C5.9264 8.29493 5.97927 8.39986 6.0043 8.51284C6.02933 8.62582 6.02573 8.74326 5.99383 8.85449C5.88741 9.22714 5.83342 9.61279 5.83342 10.0003C5.83361 10.6182 5.97269 11.2282 6.24036 11.7851C6.2907 11.8908 6.31351 12.0075 6.30665 12.1243C6.29979 12.2412 6.26349 12.3545 6.20113 12.4536C6.13876 12.5527 6.05236 12.6344 5.94995 12.6911C5.84753 12.7478 5.73244 12.7778 5.61536 12.7781H5.61328ZM13.4723 18.3337H6.52786C6.34368 18.3337 6.16705 18.2605 6.03681 18.1303C5.90658 18 5.83342 17.8234 5.83342 17.6392C5.83342 16.5341 6.2724 15.4743 7.0538 14.6929C7.83521 13.9115 8.89501 13.4726 10.0001 13.4726C11.1052 13.4726 12.165 13.9115 12.9464 14.6929C13.7278 15.4743 14.1667 16.5341 14.1667 17.6392C14.1667 17.8234 14.0936 18 13.9634 18.1303C13.8331 18.2605 13.6565 18.3337 13.4723 18.3337ZM14.1667 7.22255C13.6174 7.22255 13.0803 7.05964 12.6235 6.75441C12.1667 6.44918 11.8107 6.01535 11.6004 5.50778C11.3902 5.00021 11.3352 4.44169 11.4423 3.90285C11.5495 3.36402 11.8141 2.86907 12.2026 2.48059C12.591 2.09211 13.086 1.82755 13.6248 1.72037C14.1637 1.61319 14.7222 1.6682 15.2298 1.87844C15.7373 2.08868 16.1712 2.44472 16.4764 2.90152C16.7816 3.35832 16.9445 3.89538 16.9445 4.44477C16.9445 5.18148 16.6519 5.88802 16.1309 6.40896C15.61 6.92989 14.9035 7.22255 14.1667 7.22255ZM5.83342 7.22255C5.28402 7.22255 4.74697 7.05964 4.29016 6.75441C3.83336 6.44918 3.47733 6.01535 3.26708 5.50778C3.05684 5.00021 3.00183 4.44169 3.10901 3.90285C3.21619 3.36402 3.48075 2.86907 3.86923 2.48059C4.25771 2.09211 4.75266 1.82755 5.2915 1.72037C5.83033 1.61319 6.38885 1.6682 6.89642 1.87844C7.404 2.08868 7.83783 2.44472 8.14305 2.90152C8.44828 3.35832 8.61119 3.89538 8.61119 4.44477C8.61119 5.18148 8.31853 5.88802 7.7976 6.40896C7.27667 6.92989 6.57013 7.22255 5.83342 7.22255ZM17.639 12.7781H14.3869C14.2698 12.7778 14.1547 12.7478 14.0523 12.6911C13.9499 12.6344 13.8635 12.5527 13.8011 12.4536C13.7388 12.3545 13.7025 12.2412 13.6956 12.1243C13.6887 12.0075 13.7115 11.8908 13.7619 11.7851C14.0288 11.228 14.1672 10.6181 14.1667 10.0003C14.1656 9.61262 14.1105 9.22697 14.0029 8.85449C13.9708 8.74294 13.9672 8.62513 13.9924 8.51183C14.0175 8.39852 14.0707 8.29333 14.1471 8.20589C14.2234 8.11844 14.3204 8.05152 14.4293 8.01124C14.5381 7.97096 14.6554 7.95862 14.7702 7.97533C15.7564 8.12284 16.6575 8.6179 17.3108 9.37122C17.9642 10.1245 18.3268 11.0865 18.3334 12.0837C18.3334 12.2678 18.2603 12.4445 18.13 12.5747C17.9998 12.7049 17.8231 12.7781 17.639 12.7781Z" fill="#707070"/>
</svg>
