<svg width="36" height="30" viewBox="0 0 36 30" fill="none" xmlns="http://www.w3.org/2000/svg">
<path d="M1.98626 26.2141C0.662659 24.1217 0.00123706 21.5061 0.00202026 18.3673C-0.0521174 14.5708 0.982873 10.8417 2.97837 7.64325C4.9626 4.48557 7.95832 1.93781 11.9655 0L13.0428 2.15023C10.5929 3.22071 8.44766 4.91062 6.8076 7.06203C5.06891 9.29055 4.19958 11.5476 4.19958 13.8331C4.18196 14.6798 4.29677 15.5239 4.53967 16.3333C5.75394 15.3123 7.27734 14.7573 8.84765 14.7637C10.801 14.715 12.6947 15.4562 14.1195 16.8272C14.8435 17.5417 15.4103 18.4065 15.7819 19.3638C16.1535 20.3211 16.3213 21.3488 16.2741 22.378C16.2911 23.748 15.9377 25.096 15.2532 26.2725C14.5938 27.4101 13.6563 28.3515 12.5335 29.0039C11.4106 29.6563 10.1412 29.997 8.85059 29.9924C7.48176 30.0477 6.12342 29.7265 4.91644 29.0621C3.70945 28.3978 2.69776 27.4145 1.98626 26.2141ZM21.7128 26.2141C20.39 24.1217 19.7288 21.5061 19.7292 18.3673C19.675 14.5708 20.71 10.8417 22.7055 7.64325C24.6897 4.48557 27.6855 1.93781 31.6927 0L32.7694 2.15023C30.3196 3.22103 28.1745 4.91089 26.5342 7.06203C24.7955 9.29055 23.9261 11.5476 23.9261 13.8331C23.9088 14.6798 24.0236 15.5238 24.2662 16.3333C25.4869 15.3235 27.0064 14.77 28.5748 14.7637C30.5384 14.7042 32.4447 15.4463 33.8749 16.8272C35.2451 18.3132 36.0059 20.2823 36 22.3273C35.9941 24.3723 35.2219 26.3368 33.8432 27.8144C33.1538 28.5244 32.3312 29.0836 31.4251 29.4583C30.5189 29.8329 29.5481 30.0152 28.5713 29.9942C27.2033 30.0481 25.8461 29.7261 24.6402 29.0615C23.4343 28.3969 22.4236 27.4138 21.7128 26.2141Z" fill="#36998E"/>
</svg>
