<svg width="24" height="24" viewBox="0 0 24 24" fill="none" xmlns="http://www.w3.org/2000/svg">
<path d="M4.3323 14.662C4.43853 14.7691 4.56492 14.8541 4.70417 14.9121C4.84342 14.9701 4.99278 15 5.14363 15C5.29449 15 5.44385 14.9701 5.5831 14.9121C5.72235 14.8541 5.84874 14.7691 5.95497 14.662L11.1887 9.42829C11.2949 9.32118 11.4213 9.23617 11.5605 9.17816C11.6998 9.12014 11.8491 9.09027 12 9.09027C12.1509 9.09027 12.3002 9.12014 12.4395 9.17816C12.5787 9.23617 12.7051 9.32118 12.8113 9.42829L18.045 14.662C18.1513 14.7691 18.2776 14.8541 18.4169 14.9121C18.5562 14.9701 18.7055 15 18.8564 15C19.0072 15 19.1566 14.9701 19.2958 14.9121C19.4351 14.8541 19.5615 14.7691 19.6677 14.662C19.8805 14.4479 20 14.1583 20 13.8564C20 13.5545 19.8805 13.2648 19.6677 13.0507L14.4226 7.80562C13.7798 7.16363 12.9085 6.80303 12 6.80303C11.0915 6.80303 10.2202 7.16363 9.57742 7.80562L4.3323 13.0507C4.11946 13.2648 4 13.5545 4 13.8564C4 14.1583 4.11946 14.4479 4.3323 14.662Z" fill="#484848"/>
</svg>
