<svg width="20" height="20" viewBox="0 0 20 20" fill="none" xmlns="http://www.w3.org/2000/svg">
<path d="M6.62489 5.36963C5.76042 5.36963 5.05964 6.0704 5.05964 6.93488C5.05964 7.79935 5.76042 8.50013 6.62489 8.50013C7.48937 8.50013 8.19015 7.79935 8.19015 6.93488C8.19015 6.0704 7.48904 5.36963 6.62489 5.36963ZM16.2479 2.5H3.72592C2.60252 2.5 1.66797 3.43426 1.66797 4.587V15.022C1.66797 16.1748 2.60223 17.109 3.72562 17.109H16.2476C17.4004 17.109 18.3346 16.1748 18.3346 15.022V4.587C18.3349 3.43426 17.4284 2.5 16.2479 2.5ZM16.7697 14.8035L12.3087 8.74144C12.2272 8.59144 12.0413 8.50013 11.8424 8.50013C11.6431 8.50013 11.457 8.59039 11.3464 8.74076L7.87025 13.4398L6.66077 11.9365C6.54856 11.7969 6.36943 11.7144 6.17912 11.7144C5.98862 11.7144 5.80966 11.7969 5.69716 11.9365L3.2345 14.9956C3.2345 14.9946 3.2345 14.9965 3.2345 14.9956L3.23319 4.587C3.23319 4.29932 3.46726 4.06525 3.75494 4.06525H16.277C16.5646 4.06525 16.7987 4.29932 16.7987 4.587V14.8035H16.7697Z" fill="#36998E"/>
</svg>
