<svg width="14" height="14" viewBox="0 0 14 14" fill="none" xmlns="http://www.w3.org/2000/svg">
<path fill-rule="evenodd" clip-rule="evenodd" d="M3.11101 12.8203C4.26216 13.5895 5.61554 14 7.00001 14C8.85591 13.998 10.6352 13.2599 11.9475 11.9475C13.2599 10.6352 13.998 8.85591 14 7.00001C14 5.61554 13.5895 4.26216 12.8203 3.11101C12.0511 1.95987 10.9579 1.06266 9.67879 0.532847C8.39971 0.003033 6.99224 -0.13559 5.63438 0.134506C4.27651 0.404603 3.02923 1.07129 2.05026 2.05026C1.07129 3.02923 0.404603 4.27651 0.134506 5.63438C-0.13559 6.99224 0.003033 8.39971 0.532847 9.67879C1.06266 10.9579 1.95987 12.0511 3.11101 12.8203ZM3.75918 2.14977C4.71847 1.50879 5.84628 1.16667 7.00001 1.16667C8.54658 1.16837 10.0293 1.7835 11.1229 2.87709C12.2165 3.97069 12.8316 5.45343 12.8333 7.00001C12.8333 8.15373 12.4912 9.28155 11.8503 10.2408C11.2093 11.2001 10.2982 11.9478 9.23233 12.3893C8.16643 12.8308 6.99354 12.9463 5.86198 12.7213C4.73042 12.4962 3.69102 11.9406 2.87522 11.1248C2.05941 10.309 1.50384 9.26959 1.27876 8.13804C1.05368 7.00648 1.1692 5.83359 1.61071 4.76769C2.05222 3.70178 2.79989 2.79074 3.75918 2.14977ZM5.07538 10.6012C5.66756 10.9178 6.32867 11.0834 7.00016 11.0835C7.53649 11.0841 8.06765 10.9787 8.56316 10.7735C9.05867 10.5683 9.50879 10.2672 9.88766 9.88764L9.06283 9.0628C8.65489 9.47063 8.13519 9.74834 7.56943 9.86082C7.00368 9.9733 6.41727 9.91549 5.88437 9.69471C5.35146 9.47393 4.89598 9.1001 4.57553 8.62047C4.25507 8.14084 4.08403 7.57696 4.08403 7.00013C4.08403 6.42331 4.25507 5.85943 4.57553 5.3798C4.89598 4.90017 5.35146 4.52634 5.88437 4.30556C6.41727 4.08478 7.00368 4.02697 7.56943 4.13945C8.13519 4.25193 8.65489 4.52964 9.06283 4.93747L9.88766 4.11263C9.41282 3.63784 8.82823 3.28748 8.18565 3.09258C7.54306 2.89768 6.86234 2.86426 6.20375 2.99527C5.54517 3.12629 4.92906 3.4177 4.41 3.84369C3.89093 4.26967 3.48493 4.8171 3.22796 5.43747C2.97099 6.05784 2.87097 6.73201 2.93677 7.40027C3.00257 8.06852 3.23216 8.71024 3.60519 9.26857C3.97823 9.82691 4.4832 10.2846 5.07538 10.6012Z" fill="#707070"/>
</svg>
