<svg width="80" height="80" viewBox="0 0 80 80" fill="none" xmlns="http://www.w3.org/2000/svg">
<rect width="80" height="80" rx="40" fill="#F5FAF9"/>
<path d="M31.7249 50.6858L27.4314 49.749C27.041 49.6709 26.7288 49.469 26.4946 49.1432C26.2604 48.8185 26.1693 48.4609 26.2214 48.0706L26.6507 43.66L23.7233 40.3033C23.4631 40.017 23.333 39.6787 23.333 39.2884C23.333 38.8981 23.4631 38.5598 23.7233 38.2736L26.6507 34.9168L26.2214 30.5062C26.1693 30.1159 26.2604 29.7584 26.4946 29.4336C26.7288 29.1078 27.041 28.9059 27.4314 28.8278L31.7249 27.8911L33.9887 24.0659C34.1969 23.7277 34.4832 23.5065 34.8474 23.4024C35.2117 23.2983 35.576 23.3113 35.9403 23.4414L39.9997 25.1588L44.059 23.4414C44.4233 23.3113 44.7876 23.2983 45.1519 23.4024C45.5162 23.5065 45.8024 23.7277 46.0106 24.0659L48.2745 27.8911L52.568 28.8278C52.9583 28.9059 53.2706 29.1078 53.5047 29.4336C53.7389 29.7584 53.83 30.1159 53.778 30.5062L53.3486 34.9168L56.276 38.2736C56.5362 38.5598 56.6663 38.8981 56.6663 39.2884C56.6663 39.6787 56.5362 40.017 56.276 40.3033L53.3486 43.66L53.778 48.0706C53.83 48.4609 53.7389 48.8185 53.5047 49.1432C53.2706 49.469 52.9583 49.6709 52.568 49.749L48.2745 50.6858L46.0106 54.5109C45.8024 54.8492 45.5162 55.0704 45.1519 55.1745C44.7876 55.2785 44.4233 55.2655 44.059 55.1354L39.9997 53.418L35.9403 55.1354C35.576 55.2655 35.2117 55.2785 34.8474 55.1745C34.4832 55.0704 34.1969 54.8492 33.9887 54.5109L31.7249 50.6858ZM37.2674 43.7381C37.5537 44.0243 37.918 44.1674 38.3603 44.1674C38.8027 44.1674 39.167 44.0243 39.4532 43.7381L46.0887 37.1026C46.4009 36.7904 46.5571 36.4193 46.5571 35.9894C46.5571 35.5606 46.4009 35.1901 46.0887 34.8778C45.7764 34.5656 45.4059 34.4094 44.977 34.4094C44.5472 34.4094 44.1761 34.5656 43.8638 34.8778L38.3603 40.3813L36.0965 38.1565C35.7842 37.8703 35.4137 37.7334 34.9848 37.7459C34.555 37.7594 34.1969 37.9093 33.9107 38.1955C33.6244 38.4818 33.4813 38.8461 33.4813 39.2884C33.4813 39.7308 33.6244 40.0951 33.9107 40.3813L37.2674 43.7381Z" fill="#36998E"/>
</svg>
